<?xml version="1.0" standalone="no"?>
<!DOCTYPE svg PUBLIC "-//W3C//DTD SVG 1.1//EN" "http://www.w3.org/Graphics/SVG/1.1/DTD/svg11.dtd" >
<!--
2013-9-30: Created.
-->
<svg>
<metadata>
Created by iconfont
</metadata>
<defs>

<font id="i-ace" horiz-adv-x="1024" >
  <font-face
    font-family="i-ace"
    font-weight="500"
    font-stretch="normal"
    units-per-em="1024"
    ascent="896"
    descent="-128"
  />
    <missing-glyph />
    
    <glyph glyph-name="30" unicode="&#58880;" d="M515.4177 413.4502m-107.1767 0a107.245 107.245 0 1 1 214.3535 0 107.245 107.245 0 1 1-214.3535 0ZM186.3893 413.4502m-107.1767 0a107.245 107.245 0 1 1 214.3535 0 107.245 107.245 0 1 1-214.3535 0ZM843.4507 413.4502m-107.1767 0a107.245 107.245 0 1 1 214.3535 0 107.245 107.245 0 1 1-214.3535 0Z"  horiz-adv-x="1000" />

    
    <glyph glyph-name="43" unicode="&#58886;" d="M196.14 496.5325l195.711-52.4503c2.43-0.6543 4.8589-0.9544 7.2632-0.9544 12.3402 0 23.6175 8.2176 26.9742 20.7227 3.9864 14.9074-4.8589 30.252-19.7673 34.2385l-195.71 52.4503c-14.8531 4.0131-30.2254-4.8333-34.2385-19.7673C172.3873 515.8625 181.2326 500.5189 196.14 496.5325zM196.14 356.73800000000006l195.711-52.4483c2.43-0.6564 4.8589-0.9564 7.2632-0.9564 12.3402 0 23.6175 8.2176 26.9742 20.7227 3.9864 14.9074-4.8589 30.2531-19.7673 34.2385l-195.71 52.4503c-14.8531 3.9864-30.2254-4.8323-34.2385-19.7673C172.3873 376.0701 181.2326 360.72450000000003 196.14 356.73800000000006zM196.14 216.9457l195.711-52.4503c2.43-0.6543 4.8589-0.9564 7.2632-0.9564 12.3402 0 23.6175 8.2176 26.9742 20.7237 3.9864 14.9084-4.8589 30.252-19.7673 34.2385l-195.71 52.4503c-14.8531 3.9588-30.2254-4.8343-34.2385-19.7683C172.3873 236.27570000000003 181.2326 220.9321 196.14 216.9457zM947.3106 771.3956000000001c-6.8803 5.3238-15.9447 7.1526-24.2452 4.8333L510.9217 665.7853 98.7771 776.2278c-8.3005 2.2927-17.365 0.4905-24.2452-4.8333-6.9079-5.2695-10.9486-13.4881-10.9486-22.1706v-671.008768c0-12.6403 8.492-23.7261 20.7237-27.0019L503.6851-61.16660000000002c2.3757-0.6564 4.8056-0.9564 7.2356-0.9564s4.8589 0.3 7.2346 0.9564l419.3792 112.3799c12.2317 3.2758 20.7237 14.3616 20.7237 27.0019V749.22496C958.2592 757.9075 954.2185 766.1261 947.3106 771.3956000000001zM482.9635 2.285600000000045l-363.4627 97.3916V712.774656l363.4627-97.3906V2.285568000000012zM902.3416 99.67819999999995l-363.4606-97.3916V615.3840640000001l363.4606 97.3906V99.67820799999993zM622.7282 443.1268c2.4033 0 4.8333 0.3 7.2632 0.9544l195.71 52.4503c14.9084 3.9864 23.7537 19.33 19.7683 34.2385-4.0141 14.934-19.3311 23.808-34.2395 19.7673l-195.71-52.4503c-14.9074-3.9864-23.7537-19.33-19.7683-34.2385C599.1117 451.3444 610.388 443.1268 622.7282 443.1268zM622.7282 303.3334c2.4033 0 4.8333 0.3 7.2632 0.9564l195.71 52.4483c14.9084 3.9875 23.7537 19.3321 19.7683 34.2395-4.0141 14.935-19.3311 23.7824-34.2395 19.7673L615.5203 358.29449999999997c-14.9074-3.9854-23.7537-19.3311-19.7683-34.2385C599.1117 311.552 610.388 303.3334 622.7282 303.3334zM622.7282 163.53999999999996c2.4033 0 4.8333 0.3021 7.2632 0.9564l195.71 52.4503c14.9084 3.9864 23.7537 19.33 19.7683 34.2385-4.0141 14.934-19.3311 23.7548-34.2395 19.7683l-195.71-52.4503c-14.9074-3.9864-23.7537-19.33-19.7683-34.2385C599.1117 171.75760000000002 610.388 163.53999999999996 622.7282 163.53999999999996z"  horiz-adv-x="1024" />

    
    <glyph glyph-name="19" unicode="&#58906;" d="M510.022656 500.001792c16.329728 0 29.544448 13.27104 29.544448 29.544448 0 16.387072-13.213696 29.582336-29.544448 29.582336-16.330752 0-29.563904-13.195264-29.563904-29.582336C480.458752 513.273856 493.691904 500.001792 510.022656 500.001792zM512.234496 767.9272960000001c-212.194304 0-384.227328-172.022784-384.227328-384.265216 0-212.155392 172.032-384.188416 384.227328-384.188416 212.194304 0 384.206848 172.033024 384.206848 384.188416C896.441344 595.9045120000001 724.4288 767.9272960000001 512.234496 767.9272960000001zM756.395008 139.52614400000004c-31.72352-31.724544-68.656128-56.628224-109.76768-74.017792-42.545152-17.995776-87.76192-27.12064-134.392832-27.12064-46.631936 0-91.848704 9.124864-134.396928 27.12064-41.114624 17.389568-78.04928 42.294272-109.775872 74.018816-31.725568 31.72352-56.630272 68.65408-74.021888 109.763584-17.995776 42.541056-27.12064 87.749632-27.12064 134.372352 0 46.644224 9.124864 91.870208 27.121664 134.423552 17.390592 41.119744 42.295296 78.057472 74.021888 109.785088 31.725568 31.726592 68.6592 56.63232 109.774848 74.022912 42.546176 17.9968 87.763968 27.12064 134.396928 27.12064 46.631936 0 91.848704-9.124864 134.391808-27.12064 41.112576-17.390592 78.04416-42.295296 109.76768-74.022912 31.72352-31.727616 56.626176-68.665344 74.015744-109.785088 17.994752-42.553344 27.118592-87.780352 27.118592-134.424576 0-46.62272-9.12384-91.833344-27.117568-134.373376C813.021184 208.18022399999995 788.119552 171.24966400000005 756.395008 139.52614400000004zM521.889792 442.952704L502.213632 442.952704c-5.040128 0-10.079232-1.924096-13.9264-5.77024-3.847168-3.847168-5.77024-8.896512-5.77024-13.935616l0-196.922368c0-5.039104 1.923072-10.078208 5.77024-13.925376s8.886272-5.771264 13.9264-5.771264l19.67616 0c5.040128 0 10.079232 1.924096 13.9264 5.771264s5.77024 8.886272 5.77024 13.925376L541.586432 423.246848c0 5.039104-1.923072 10.088448-5.77024 13.935616C531.968 441.028608 526.92992 442.952704 521.889792 442.952704z"  horiz-adv-x="1024" />

    
    <glyph glyph-name="40" unicode="&#58995;" d="M512 829C266.266 829 67 629.739 67 383.99300000000005S266.236-60.985000000000014 512-61c245.735 0.015 445 199.262 445 445.008C957 629.7529999999999 757.765 829 512 829zM512-31.31899999999996c-229.018 0-415.333 186.298-415.333 415.313 0 229.03 186.315 415.341 415.333 415.312 229.019 0.015 415.334-186.282 415.334-415.312C927.334 154.97900000000004 741.019-31.31899999999996 512-31.31899999999996zM522.488 331.55600000000004l-20.976-20.976 20.976-20.975c5.794-5.794 5.794-15.181 0-20.975l-125.866-125.85c-5.78-5.794-15.181-5.794-20.976 0L270.756 247.65499999999997c-5.779 5.795-5.779 15.182 0 20.976l125.866 125.85c5.794 5.794 15.195 5.794 20.976 0l20.989-20.976 20.976 20.976-20.976 21.004c-17.383 17.382-45.558 17.382-62.94 0L249.781 289.605c-17.383-17.382-17.383-45.542 0-62.924l104.891-104.904c17.383-17.383 45.543-17.383 62.926 0l125.865 125.878c17.383 17.383 17.383 45.542 0 62.925L522.488 331.55600000000004zM669.329 646.2090000000001c-17.383 17.382-45.543 17.382-62.926 0l-125.866-125.85c-17.383-17.383-17.383-45.542 0-62.925l20.976-20.976 20.976 20.976-20.976 20.975c-5.794 5.794-5.794 15.181 0 20.974l125.866 125.85c5.779 5.795 15.195 5.795 20.976 0l104.891-104.874c5.779-5.794 5.779-15.181 0-20.976L627.379 373.505c-5.794-5.765-15.195-5.765-20.976 0l-20.975 20.976-20.99-20.976 20.99-20.974c17.383-17.383 45.543-17.383 62.926 0L774.22 478.41c17.383 17.382 17.383 45.542 0 62.925L669.329 646.2090000000001zM428.085 300.09299999999996c5.809-5.794 15.181-5.794 20.989 0l146.842 146.854c5.794 5.794 5.794 15.181 0 20.974-5.809 5.795-15.181 5.795-20.976 0L428.085 321.068C422.291 315.273 422.291 305.88699999999994 428.085 300.09299999999996z"  horiz-adv-x="1024" />

    
    <glyph glyph-name="29" unicode="&#59026;" d="M889.74632 659.826046L663.065578 659.826046l0.585331 93.879134c0 12.455683-10.097986 22.551622-22.551622 22.551622L384.068306 776.256802c-12.455683 0-22.551622-10.095939-22.551622-22.551622l-0.583285-93.879134L134.25368 659.826046c-12.456706 0-22.551622-10.096962-22.551622-22.551622 0-12.455683 10.094916-22.551622 22.551622-22.551622l62.573127 0 0-600.427982c0-12.455683 10.095939-22.551622 22.551622-22.551622L804.619524-8.256801999999993c12.45466 0 22.551622 10.095939 22.551622 22.551622L827.171146 614.722802l62.574151 0c12.45466 0 22.551622 10.095939 22.551622 22.551622C912.297942 649.7290840000001 902.199956 659.826046 889.74632 659.826046zM406.619928 731.153558l211.92569 0-0.585331-71.327512L406.036643 659.826046 406.619928 731.153558zM782.067902 36.846442000000025L241.930051 36.846442000000025 241.930051 614.722802l540.136827 0L782.066879 36.846442000000025zM355.878267 140.20957799999996c12.455683 0 22.551622 10.095939 22.551622 22.551622L378.429889 487.522772c0 12.45466-10.095939 22.551622-22.551622 22.551622-12.45466 0-22.551622-10.097986-22.551622-22.551622l0-324.761572C333.326645 150.305517 343.42463 140.20957799999996 355.878267 140.20957799999996zM506.945891 140.20957799999996c12.455683 0 22.551622 10.095939 22.551622 22.551622L529.497513 487.522772c0 12.45466-10.095939 22.551622-22.551622 22.551622-12.45466 0-22.551622-10.097986-22.551622-22.551622l0-324.761572C484.393245 150.305517 494.491231 140.20957799999996 506.945891 140.20957799999996zM658.012492 140.20957799999996c12.455683 0 22.551622 10.095939 22.551622 22.551622L680.564114 487.522772c0 12.45466-10.095939 22.551622-22.551622 22.551622-12.455683 0-22.551622-10.097986-22.551622-22.551622l0-324.761572C635.46087 150.305517 645.556808 140.20957799999996 658.012492 140.20957799999996z"  horiz-adv-x="1024" />

    
    <glyph glyph-name="04" unicode="&#59361;" d="M759.245 270.933c24.097 0 43.597 19.527 43.597 43.582 0 13.886-6.481 26.229-16.578 34.207l0.229 0.281c-33.55 25.956-70.818 47.244-111.094 62.656 51.26 43.98 83.846 109.107 83.846 181.926 0 132.396-107.349 239.743-239.729 239.743-132.396 0-239.744-107.347-239.744-239.743 0-72.818 32.612-137.945 83.859-181.926C200.069 348.904 83.696 190.76300000000003 83.611 5.048000000000002l0-0.086c0.085-23.998 19.599-43.512 43.583-43.512 24.112 0 43.526 19.514 43.598 43.512 0 192.287 156.479 348.709 348.724 348.709 78.848 0 151.407-26.582 209.841-70.848C737.157 275.45899999999995 747.668 270.933 759.245 270.933zM519.515 441.037c-84.116 0-152.563 68.434-152.563 152.549s68.447 152.577 152.563 152.577c84.129 0 152.591-68.462 152.591-152.577S603.644 441.037 519.515 441.037zM918.307 107.79700000000003l-21.231 0 0.085 62.516c0 37.184-38.63 67.326-86.372 67.326-47.713 0-86.399-30.143-86.399-67.326l-0.427-62.516-21.656 0c-11.949 0-21.146-9.621-21.146-18.945l-0.482-135.25c0-9.295 10.132-18.93 22.082-18.93l216.057 0c11.922 0 21.118 9.635 21.118 18.93l0.454 135.25C940.389 98.17499999999995 930.228 107.79700000000003 918.307 107.79700000000003zM853.535 107.79700000000003l-86.286 0 0 64.914c0 18.564 19.755 31.266 43.54 31.266 23.786 0 43.03-12.701 43.03-31.266L853.535 107.79700000000003z"  horiz-adv-x="1024" />

    
    <glyph glyph-name="28" unicode="&#58881;" d="M358.165868 341.37520400000005c-0.533143-0.680499-1.066285-1.391696-1.303692-2.251274l-41.104163-150.700257c-2.400676-8.772804 0.059352-18.226107 6.550183-24.892947 4.860704-4.742001 11.261485-7.350408 18.077727-7.350408 2.252297 0 4.504594 0.267083 6.727215 0.860601l149.630902 40.808428c0.23843 0 0.357134-0.207731 0.534166-0.207731 1.718131 0 3.408633 0.62217 4.683672 1.927909l400.113747 400.054395c11.883655 11.897981 18.404162 28.109198 18.404162 45.74281 0 19.989263-8.476045 39.963177-23.324218 54.767348l-37.786605 37.844933c-14.81645 14.848173-34.822087 23.338544-54.797024 23.338544-17.631566 0-33.842783-6.520507-45.75816-18.388812L358.758362 342.767923C358.344946 342.384184 358.462626 341.820342 358.165868 341.37520400000005M862.924953 638.80222l-39.742143-39.71349-64.428382 65.451688 39.180348 39.179324c6.193049 6.222725 18.194384 5.318122 25.308409-1.822508l37.813211-37.845956c3.943822-3.941775 6.195096-9.18622 6.195096-14.372336C867.223862 645.425058 865.710392 641.57231 862.924953 638.80222M429.322487 335.09210399999995l288.712541 288.728914 64.459081-65.49569L494.314711 270.16127900000004 429.322487 335.09210399999995zM376.718409 218.02996800000005l20.863167 76.580143 55.656601-55.657624L376.718409 218.02996800000005zM888.265084 480.264461c-15.144932 0-27.562752-12.313443-27.620058-27.665083l0-372.98283c0-19.559475-15.885805-35.444257-35.475979-35.444257L194.220958 44.17229099999997c-19.559475 0-35.504632 15.883759-35.504632 35.444257L158.716326 688.397778c0 19.575848 15.945157 35.474956 35.504632 35.474956l406.367171 0c15.231913 0 27.592428 12.371772 27.592428 27.606755 0 15.202237-12.360516 27.590382-27.592428 27.590382L190.013123 779.069871c-47.684022 0-86.49291-38.779212-86.49291-86.49291L103.520213 75.40769c0-47.713698 38.808888-86.47756 86.49291-86.47756l639.334083 0c47.715745 0 86.509283 38.763862 86.509283 86.47756L915.856489 452.777433C915.794068 467.951017 903.408993 480.264461 888.265084 480.264461"  horiz-adv-x="1024" />

    
    <glyph glyph-name="27" unicode="&#59168;" d="M1005.714286 438.857143L566.857143 438.857143 566.857143 877.714286 457.142857 877.714286 457.142857 438.857143 18.285714 438.857143 18.285714 329.14285700000005 457.142857 329.14285700000005 457.142857-109.71428600000002 566.857143-109.71428600000002 566.857143 329.14285700000005 1005.714286 329.14285700000005Z"  horiz-adv-x="1024" />

    
    <glyph glyph-name="17" unicode="&#59005;" d="M515.303226 889.393548c-276.849961 0-502.090323-225.240361-502.090323-502.090323s225.240361-502.090323 502.090323-502.090323 502.090323 225.240361 502.090323 502.090323S792.153187 889.393548 515.303226 889.393548zM515.303226-61.935483999999974c-247.71551 0-449.23871 201.5232-449.23871 449.23871 0 247.71551 201.5232 449.23871 449.23871 449.23871 247.71551 0 449.23871-201.5232 449.23871-449.23871C964.541935 139.587716 763.018735-61.935483999999974 515.303226-61.935483999999974zM474.594271 371.527019m-26.425806 0a2 2 0 1 1 52.851613 0 2 2 0 1 1-52.851613 0ZM561.310555 284.810735m-37.709626 0a2.854 2.854 0 1 1 75.419252 0 2.854 2.854 0 1 1-75.419252 0ZM561.310555 511.081703m-37.709626 0a2.854 2.854 0 1 1 75.419252 0 2.854 2.854 0 1 1-75.419252 0ZM436.884645 622.29471m-37.709626 0a2.854 2.854 0 1 1 75.419252 0 2.854 2.854 0 1 1-75.419252 0ZM620.438297 160.84727699999996L430.516026 160.84727699999996 368.018994 551.4999740000001 315.828026 543.1494190000001 385.446813 107.99566500000003 664.794013 107.99566500000003 741.204232 542.7530320000001 689.158606 551.8963610000001Z"  horiz-adv-x="1024" />

    
    <glyph glyph-name="31" unicode="&#58904;" d="M213.333333 469.333333c-25.6 0-42.666667 17.066667-42.666667 42.666667 0 166.4 132.266667 298.666667 298.666667 298.666667 128 0 243.2-85.333333 285.866667-209.066667C759.466667 580.266667 750.933333 554.666667 725.333333 550.4c-21.333333-8.533333-46.933333 4.266667-55.466667 25.6C644.266667 665.6 563.2 725.333333 469.333333 725.333333 349.866667 725.333333 256 631.4666669999999 256 512 256 486.4 238.933333 469.333333 213.333333 469.333333zM768 128c-25.6 0-42.666667 17.066667-42.666667 42.666667s17.066667 42.666667 42.666667 42.666667c93.866667 0 170.666667 76.8 170.666667 170.666667s-76.8 170.666667-170.666667 170.666667c-12.8 0-29.866667 0-42.666667-4.266667-21.333333-4.266667-46.933333 8.533333-51.2 29.866667s8.533333 46.933333 29.866667 51.2C725.333333 635.733333 746.666667 640 768 640c140.8 0 256-115.2 256-256S908.8 128 768 128zM341.333333 128L213.333333 128c-25.6 0-42.666667 17.066667-42.666667 42.666667s17.066667 42.666667 42.666667 42.666667l128 0c25.6 0 42.666667-17.066667 42.666667-42.666667S366.933333 128 341.333333 128zM768 128l-85.333333 0c-25.6 0-42.666667 17.066667-42.666667 42.666667s17.066667 42.666667 42.666667 42.666667l85.333333 0c25.6 0 42.666667-17.066667 42.666667-42.666667S793.6 128 768 128zM213.333333 128c-119.466667 0-213.333333 93.866667-213.333333 213.333333s93.866667 213.333333 213.333333 213.333333c25.6 0 42.666667-17.066667 42.666667-42.666667s-17.066667-42.666667-42.666667-42.666667c-72.533333 0-128-55.466667-128-128s55.466667-128 128-128c25.6 0 42.666667-17.066667 42.666667-42.666667S238.933333 128 213.333333 128zM512-42.66666699999996c-25.6 0-42.666667 17.066667-42.666667 42.666667L469.333333 426.666667c0 25.6 17.066667 42.666667 42.666667 42.666667s42.666667-17.066667 42.666667-42.666667l0-426.666667C554.666667-25.600000000000023 537.6-42.66666699999996 512-42.66666699999996zM384 256c-12.8 0-21.333333 4.266667-29.866667 12.8-17.066667 17.066667-17.066667 42.666667 0 59.733333l128 128c17.066667 17.066667 42.666667 17.066667 59.733333 0s17.066667-42.666667 0-59.733333l-128-128C405.333333 260.266667 396.8 256 384 256zM640 256c-12.8 0-21.333333 4.266667-29.866667 12.8l-128 128c-17.066667 17.066667-17.066667 42.666667 0 59.733333s42.666667 17.066667 59.733333 0l128-128c17.066667-17.066667 17.066667-42.666667 0-59.733333C661.333333 260.266667 652.8 256 640 256z"  horiz-adv-x="1024" />

    
    <glyph glyph-name="01" unicode="&#58882;" d="M512.00307 359.76708599999995c-5.291516 0-10.605545 1.02126-15.657608 3.095501L24.944112 558.771489c-15.09172 6.272867-24.8909 20.87954-24.8909 37.077453 0 16.21531 9.79918 30.810726 24.8909 37.083593L496.346485 828.835298c9.972119 4.167926 21.340027 4.167926 31.314193 0l471.39828-195.902762c15.105023-6.272867 24.89397-20.868283 24.89397-37.083593 0-16.198937-9.788947-30.80561-24.89397-37.077453L527.660678 362.86258699999996C522.582009 360.78834600000005 517.29254 359.76708599999995 512.00307 359.76708599999995L512.00307 359.76708599999995zM145.398508 595.8489420000001l366.604562-152.334477 366.588189 152.334477-366.588189 152.339594L145.398508 595.8489420000001 145.398508 595.8489420000001zM512.00307 178.94990399999995c-5.291516 0-10.605545 0.991584-15.657608 3.082198L24.944112 377.929748c-20.706601 8.594749-30.352285 32.150234-21.813818 52.584636 8.697079 20.485567 32.483832 30.142507 52.959166 21.584598l455.913611-189.428304 455.900308 189.428304c20.550035 8.477069 44.285622-1.099031 52.969399-21.584598 8.528234-20.434401-1.105171-43.988864-21.813818-52.584636L527.660678 182.03312600000004C522.582009 179.94148800000005 517.29254 178.94990399999995 512.00307 178.94990399999995L512.00307 178.94990399999995zM512.00307 3.121340000000032c-5.291516 0-10.605545 1.02126-15.657608 3.082198L24.944112 202.127789c-20.706601 8.594749-30.352285 32.138978-21.813818 52.597939 8.697079 20.512173 32.483832 30.206976 52.959166 21.569248l455.913611-189.428304 455.900308 189.428304c20.550035 8.559956 44.285622-1.056052 52.969399-21.569248 8.528234-20.458961-1.105171-44.002167-21.813818-52.597939L527.660678 6.2035379999999805C522.582009 4.141575999999986 517.29254 3.121340000000032 512.00307 3.121340000000032L512.00307 3.121340000000032zM512.00307 3.121340000000032"  horiz-adv-x="1024" />

    
    <glyph glyph-name="26" unicode="&#59034;" d="M589.333 448.216L575.667 448.216 447.745 448.216 442.833 448.216 63.981 448.216 63.981 320.294 442.833 320.294 447.745 320.294 575.667 320.294 589.333 320.294 959.43 320.294 959.43 448.216Z"  horiz-adv-x="1024" />

    
    <glyph glyph-name="55" unicode="&#58991;" d="M240.499641 206.724065c5.372192-10.13042 11.665332-17.446835 18.828255-22.051571 13.55839-8.49318 30.39126-8.083871 50.396282 1.176766 8.953654 4.144263 16.525887 9.260637 22.665536 15.349121 11.869987 11.818823 14.735156 24.353939 8.544344 37.656511-4.604736 9.976929-10.94904 15.707267-18.930583 17.139852-8.032707 1.330257-19.339893 0.511637-33.819231-2.507023l-26.656307-5.525684c-17.446835-3.632625-30.442424-4.758228-38.986768-3.325643-14.837484 2.404696-25.786524 11.204859-32.84712 26.451652-7.623397 16.474724-8.339689 32.540137-2.148877 48.298568 6.190812 15.707267 19.493384 28.242383 39.805388 37.707675 18.725928 8.646672 36.735564 11.35835 54.131234 8.135034 17.344507-3.223315 30.749406-14.990975 40.214698-35.405306l-23.330664-10.846712c-5.730339 9.260637-11.818823 15.60494-18.163127 19.084074-11.665332 6.190812-26.246997 5.269865-43.591505-2.762842-14.070028-6.497795-22.767863-14.274683-25.991179-23.279501-3.325643-9.004818-3.018661-17.600326 0.716292-25.73536 4.144263-9.004818 10.846712-13.865373 20.005021-14.683993 5.986157-0.460474 18.265454 1.176766 36.940219 4.962883l27.628418 5.679175c13.353736 2.711678 24.405103 3.172152 33.205266 1.22793 15.246794-3.325643 26.656307-13.200244 34.177377-29.470313 9.414128-20.312004 8.953654-38.168148-1.381421-53.568433s-25.070231-27.526091-44.154306-36.377418c-22.205062-10.283911-42.363575-12.535116-60.322047-6.70245-17.958472 5.730339-31.414535 18.572437-40.317025 38.526294L240.499641 206.724065zM390.767539 427.188611l28.037728 12.995589 151.495827-152.519102-27.219108-12.586279-44.563616 46.047364-71.936215-33.307593 5.576847-64.159327L406.679461 211.84043899999995 390.767539 427.188611zM482.094811 338.010216L416.298244 406.006823l8.186198-94.601751L482.094811 338.010216zM507.779007 481.371009l24.865577 11.511841 74.750221-161.52392 91.9924 42.619394 10.13042-21.846916L592.710812 298.000173 507.779007 481.371009zM652.36773 548.293178l133.025718 61.652304 10.386239-22.460881-108.82527-50.396282 25.786524-55.666147 100.587908 46.610165 9.823438-21.232951-100.587908-46.610165 28.754021-62.112778 110.718328 51.317229 10.13042-21.846916-134.918776-62.522087L652.36773 548.293178zM677.233306-127.98910699999999c-15.246794 0-30.493588 3.172152-44.972925 9.414128l-91.480763 39.754224c-18.316618 7.930379-39.293751 7.930379-57.559205 0l-91.480763-39.754224c-28.344711-12.279297-59.708082-12.586279-88.206284-0.767456s-50.498609 34.177377-61.805795 62.931397l-36.582072 92.81102c-7.316414 18.572437-22.153898 33.409921-40.726335 40.726335l-92.81102 36.582072c-28.754021 11.307186-51.06141 33.25643-62.931397 61.805795-11.818823 28.549366-11.563005 59.861573 0.767456 88.206284l39.754224 91.480763c7.930379 18.265454 7.930379 39.293751 0 57.559205l-39.754224 91.480763c-12.279297 28.344711-12.586279 59.656918-0.767456 88.206284 11.818823 28.549366 34.177377 50.498609 62.931397 61.856959l92.81102 36.582072c18.572437 7.316414 33.358757 22.153898 40.675171 40.726335L241.676407 824.372706c11.307186 28.754021 33.25643 51.06141 61.805795 62.931397 28.549366 11.869987 59.861573 11.563005 88.206284-0.767456L483.220413 846.782423c18.265454-7.930379 39.293751-7.930379 57.559205 0l91.480763 39.754224c28.344711 12.279297 59.708082 12.586279 88.206284 0.767456s50.498609-34.177377 61.805795-62.931397l36.582072-92.81102c7.316414-18.572437 22.153898-33.358757 40.726335-40.675171l92.81102-36.582072c28.754021-11.307186 51.112574-33.307593 62.931397-61.856959 11.818823-28.549366 11.563005-59.861573-0.767456-88.206284l-39.754224-91.480763c-7.930379-18.265454-7.930379-39.293751 0-57.559205l39.754224-91.480763c12.279297-28.344711 12.586279-59.656918 0.767456-88.206284-11.818823-28.549366-34.177377-50.498609-62.931397-61.805795l-92.81102-36.582072c-18.572437-7.316414-33.409921-22.153898-40.726335-40.726335l-36.582072-92.81102c-11.307186-28.754021-33.25643-51.06141-61.805795-62.931397C706.498964-125.12393799999995 691.866135-127.98910699999999 677.233306-127.98910699999999zM511.974433-32.15942700000005c15.349121 0 30.698243-3.120988 44.972925-9.3118l91.480763-39.754224c18.111963-7.879216 38.168148-8.083871 56.433603-0.460474 18.265454 7.572233 32.284318 21.846916 39.549569 40.214698l36.582072 92.81102c11.409514 29.009839 34.63785 52.238176 63.64769 63.64769l92.81102 36.582072c18.367782 7.265251 32.642465 21.284115 40.214698 39.549569 7.572233 18.265454 7.418742 38.32164-0.460474 56.433603l-39.754224 91.480763c-12.432788 28.600529-12.432788 61.396485 0 89.997015l39.754224 91.480763c7.879216 18.111963 8.032707 38.168148 0.511637 56.382439-7.572233 18.265454-21.846916 32.335482-40.265862 39.549569l-92.81102 36.582072c-29.009839 11.409514-52.238176 34.586687-63.64769 63.64769L744.411294 809.432895c-7.265251 18.367782-21.284115 32.642465-39.549569 40.214698-18.265454 7.572233-38.270476 7.418742-56.433603-0.460474L556.998523 809.432895c-28.600529-12.432788-61.396485-12.432788-89.997015 0l-91.480763 39.754224c-18.111963 7.879216-38.168148 8.032707-56.433603 0.460474C300.821688 842.126523 286.802824 827.85184 279.537573 809.432895l-36.582072-92.81102c-11.409514-29.009839-34.63785-52.238176-63.64769-63.64769l-92.81102-36.582072c-18.367782-7.265251-32.693628-21.284115-40.265862-39.549569-7.572233-18.265454-7.367578-38.270476 0.511637-56.433603l39.754224-91.480763c12.432788-28.600529 12.432788-61.396485 0-89.997015L46.742567 247.50156400000003c-7.879216-18.111963-8.032707-38.168148-0.460474-56.433603 7.572233-18.265454 21.846916-32.284318 40.214698-39.549569l92.81102-36.582072c29.009839-11.409514 52.187012-34.63785 63.64769-63.64769l36.582072-92.81102c7.265251-18.367782 21.284115-32.642465 39.549569-40.214698 18.265454-7.572233 38.270476-7.418742 56.433603 0.460474l91.480763 39.754224C481.276191-35.28041499999995 496.625312-32.15942700000005 511.974433-32.15942700000005z"  horiz-adv-x="1024" />

    
    <glyph glyph-name="36" unicode="&#58892;" d="M517.13167-127.968027l0 0c-119.067537 0-234.138446 8.185094-315.669654 22.445062-127.828145 22.381116-158.074625 52.403784-179.912199 178.44144-29.063478 167.794423-28.615855 452.482218 0.959191 621.619509 22.31717 127.732226 52.339838 158.010678 178.409467 179.912199 79.996503 13.876292 188.928592 21.549817 306.685234 21.549817 118.811753 0 233.65885-8.153121 314.99822-22.413089 127.764199-22.381116 158.010678-52.403784 179.912199-178.44144 29.095451-167.826396 28.711774-452.546164-0.895245-621.747401-22.285197-127.764199-52.339838-158.010678-178.409467-179.944172-79.868611-13.844319-188.576888-21.453898-306.077747-21.453898zM507.603709 864.506573c-116.0301 0-223.043807-7.51366-301.313767-21.102195-112.768851-19.599463-132.751991-39.77444-152.767103-154.301808-29.095451-166.227745-29.5111-445.959721-0.959191-610.8446 19.535517-112.704905 39.710494-132.720017 154.301808-152.799076 79.836638-13.940238 192.925219-21.933494 310.266213-21.933494l0 0c115.774315 0 222.532238 7.449714 300.674306 20.974303 112.800824 19.599463 132.783964 39.806413 152.799076 154.365754 29.095451 166.291691 29.479127 446.055641 0.895245 610.940519-19.599463 112.736878-39.806413 132.751991-154.333781 152.799076-79.6448 13.940238-192.50957 21.933494-309.594779 21.933494zM601.348612 672.188841c-135.117994 0-248.398414-93.201361-279.220408-218.791395-2.74968 0.127892-5.49936 0.191838-8.281013 0.191838-98.285072 0-177.961845-79.676773-177.961845-177.929872 0-49.142536 19.919193-93.585038 52.116027-125.749899s76.703282-52.020108 125.845818-52.020108 93.648984 20.143004 125.845818 52.339838c27.912449 27.880476 46.552721 65.256939 51.060917 106.757923l-40.765604 5.019765c-14.643644 1.790489-19.343679 12.917101-10.487151 24.715147l79.612827 105.510975c8.8885 11.766072 20.846411 10.295313 26.601555-3.293221l51.572486-121.721298c5.755144-13.588535-1.502732-23.212415-16.146376-21.421925l-36.06557 4.44425c-5.467387-50.165673-26.505636-94.35239-58.063009-129.426796 35.042433-15.219159 73.665844-23.69201 114.303556-23.69201 158.778031 0 287.501421 128.72339 287.501421 287.501421s-128.72339 287.501421-287.501421 287.501421z"  horiz-adv-x="1025" />

    
    <glyph glyph-name="25" unicode="&#59150;" d="M864.019692 79.99015399999996l-416.019692 128L864.019692 688.009846 320 207.99015399999996 0 335.99015399999996 1024 880.009846 864.019692 79.99015399999996zM448-112.00984600000004l0 224.019692 128-64L448-112.00984600000004z"  horiz-adv-x="1024" />

    
    <glyph glyph-name="05" unicode="&#58901;" d="M512.024043-128c-282.772053 0-512.024043 229.20595-512.024043 511.999488 0 282.747498 229.251991 512.000512 512.024043 512.000512 282.768983 0 512.020974-229.251991 512.020974-512.000512C1024.045017 101.20595000000003 794.792003-128 512.024043-128zM512.068037 826.095807c-244.204786 0-442.163844-197.936549-442.163844-442.142359 0-238.758756 197.969289-442.186352 442.163844-442.186352 244.183301 0 442.164867 197.981566 442.164867 442.186352S756.250315 826.095807 512.068037 826.095807zM535.428775 315.73227599999996l-0.091057-49.541176c0-25.13277-15.611681-45.494764-34.905545-45.494764-19.270333 0-35.627863 19.751196-35.627863 44.883966l0.858392 73.10449c0 25.179833 15.635212 45.541827 34.905545 45.541827 5.591312 0 19.225316 0.454262 19.225316 0.454262 60.586703 4.044366 108.649481 53.994787 108.649481 115.580048 0 64.267864-52.109189 116.398538-116.352498 116.398538-56.314184 0-103.241306-39.996555-114.012639-93.127834l-2.569037-13.316838c0-18.406825-15.498115-33.359621-34.633397-33.359621-19.112773 0-34.632374 14.952796-34.632374 33.359621l1.226712 13.316838c11.476258 91.856105 89.651296 162.939947 184.596179 162.939947 102.833084 0 186.188143-83.356082 186.188143-186.164611C698.25618 405.406081 627.216331 327.27708299999995 535.428775 315.73227599999996zM500.568247 151.01825099999996c19.20383 0 34.791979-15.361018 34.791979-34.313162l-0.135051-1.000604c0-18.953168-15.567687-34.316232-34.793002-34.316232-19.20383 0-34.791979 15.363064-34.791979 34.316232l0.135051 1.000604C465.776268 135.65825600000005 481.366463 151.01825099999996 500.568247 151.01825099999996z"  horiz-adv-x="1025" />

    
    <glyph glyph-name="02" unicode="&#58974;" d="M65.710584 756.455827c0 40.727587 32.606629 73.741491 73.741491 73.741491l234.970546 0c40.72554 0 73.740468-32.606629 73.740468-73.741491l0-234.970546c0-40.72554-32.606629-73.740468-73.740468-73.740468L139.452075 447.744813c-40.727587 0-73.741491 32.606629-73.741491 73.740468L65.710584 756.455827 65.710584 756.455827zM140.075269 246.514719l0-234.971569c0 0.14224-0.481977 0.624217-0.623193 0.624217l234.970546 0c-0.14224 0-0.624217-0.488117-0.624217-0.624217L373.798405 246.514719c0-0.14224 0.488117-0.624217 0.624217-0.624217L139.452075 245.89050199999997C139.593292 245.89050199999997 140.075269 246.372479 140.075269 246.514719L140.075269 246.514719zM65.710584 246.514719c0 40.72554 32.606629 73.740468 73.741491 73.740468l234.970546 0c40.72554 0 73.740468-32.606629 73.740468-73.740468l0-234.971569c0-40.72554-32.606629-73.740468-73.740468-73.740468L139.452075-62.197317999999996c-40.727587 0-73.741491 32.606629-73.741491 73.740468L65.710584 246.514719 65.710584 246.514719zM650.0174 756.455827l0-234.970546c0 0.14224-0.481977 0.624217-0.624217 0.624217l234.971569 0c-0.14224 0-0.624217-0.488117-0.624217-0.624217L883.740536 756.455827c0-0.141216 0.488117-0.623193 0.624217-0.623193l-234.971569 0C649.535423 755.832633 650.0174 756.314611 650.0174 756.455827L650.0174 756.455827zM575.652715 756.455827c0 40.727587 32.606629 73.741491 73.740468 73.741491l234.971569 0c40.72554 0 73.740468-32.606629 73.740468-73.741491l0-234.970546c0-40.72554-32.606629-73.740468-73.740468-73.740468l-234.971569 0c-40.72554 0-73.740468 32.606629-73.740468 73.740468L575.652715 756.455827 575.652715 756.455827zM650.0174 246.514719l0-234.971569c0 0.14224-0.481977 0.624217-0.624217 0.624217l234.971569 0c-0.14224 0-0.624217-0.488117-0.624217-0.624217L883.740536 246.514719c0-0.14224 0.488117-0.624217 0.624217-0.624217l-234.971569 0C649.535423 245.89050199999997 650.0174 246.372479 650.0174 246.514719L650.0174 246.514719zM575.652715 246.514719c0 40.72554 32.606629 73.740468 73.740468 73.740468l234.971569 0c40.72554 0 73.740468-32.606629 73.740468-73.740468l0-234.971569c0-40.72554-32.606629-73.740468-73.740468-73.740468l-234.971569 0c-40.72554 0-73.740468 32.606629-73.740468 73.740468L575.652715 246.514719 575.652715 246.514719 575.652715 246.514719zM575.652715 246.514719"  horiz-adv-x="1024" />

    
    <glyph glyph-name="35" unicode="&#59630;" d="M709.352 162.20399999999995l-197.216-56.25-196.916 56.496L301.728 318l96.506 0 6.866-79.126 107.172-30.326 0.264-0.546 0.068 0 106.934 29.704L630.762 366 406 366l-8 100 241.292 0 8.792 102L280 568l-8 98 481.16 0L709.352 162.20399999999995zM128 832l69.872-806.602L511.538-64l314.49 89.41L896 832 128 832zM766.082 74.98000000000002l-254.524-72.374-253.734 72.338L197.792 768 826.2 768 766.082 74.98000000000002z"  horiz-adv-x="1024" />

    
    <glyph glyph-name="24" unicode="&#58891;" d="M1023.9488 198.66828799999996l-48.249856 0c-8.972288 90.143744-84.984832 160.540672-177.481728 160.540672-12.541952 0-24.757248-1.394688-36.558848-3.876864 13.022208 13.390848 24.343552 28.437504 33.708032 44.745728 2.458624-0.175104 4.790272-0.740352 7.315456-0.740352 61.57824 0 111.483904 49.906688 111.483904 111.48288 0 61.57824-49.905664 111.484928-111.483904 111.484928-2.525184 0-4.855808-0.567296-7.315456-0.741376-8.449024 14.718976-18.551808 28.307456-30.006272 40.6528 11.976704 2.93888 24.430592 4.680704 37.320704 4.680704 86.20544 0 156.077056-69.873664 156.077056-156.077056 0-53.803008-27.240448-101.249024-68.675584-129.29536C963.221504 350.323712 1015.718912 281.018368 1023.9488 198.66828799999996zM670.55616 318.92582400000003c128.074752-38.909952 221.310976-157.840384 221.310976-298.632192L842.35264 20.293632000000002c0.045056 1.501184 0.24064 2.960384 0.24064 4.46464 0 147.757056-119.73632 267.558912-267.452416 267.558912-147.704832 0-267.451392-119.801856-267.451392-267.558912 0-1.50528 0.206848-2.96448 0.228352-4.46464l-40.358912 0c0 130.820096 80.565248 242.695168 194.715648 289.117184-75.491328 35.731456-127.824896 112.355328-127.824896 201.409536 0 123.132928 99.823616 222.967808 222.967808 222.967808 123.153408 0 222.96576-99.83488 222.96576-222.967808C780.384256 429.037568 736.205824 357.72723199999996 670.55616 318.92582400000003zM557.418496 689.195008c-98.518016 0-178.372608-79.867904-178.372608-178.373632s79.854592-178.372608 178.372608-178.372608c98.504704 0 178.373632 79.86688 178.373632 178.372608S655.9232 689.195008 557.418496 689.195008zM356.747264 365.89158399999997l0-22.295552c0-6.162432-4.99712-11.148288-11.147264-11.148288L200.671232 332.44774399999994l0-144.928768c0-6.161408-4.998144-11.149312-11.149312-11.149312l-22.296576 0c-6.152192 0-11.149312 4.987904-11.149312 11.149312L156.076032 332.44774399999994 11.149312 332.44774399999994C4.98688 332.44774399999994 0 337.43359999999996 0 343.59603200000004l0 22.295552c0 6.16448 4.98688 11.150336 11.149312 11.150336l144.927744 0L156.077056 521.969664c0 6.161408 4.99712 11.147264 11.149312 11.147264l22.296576 0c6.150144 0 11.149312-4.985856 11.149312-11.147264l0-144.927744L345.6 377.04192C351.750144 377.04192 356.747264 372.056064 356.747264 365.89158399999997z"  horiz-adv-x="1024" />

    
    <glyph glyph-name="10" unicode="&#58895;" d="M721.147 542.23v-487.532h64.915v487.532h162.287l-194.743 194.745-194.745-194.745h162.287zM71.999 779.705h97.372v-64.915h-97.372v64.915zM201.828 779.705h97.372v-64.915h-97.372v64.915zM331.657 779.705h64.915v-97.372h-64.915v97.372zM71.999 552.502h64.915v-97.373h-64.915v97.373zM169.371 520.044h97.372v-64.915h-97.372v64.915zM299.2 520.044h97.372v-64.915h-97.372v64.915zM71.999 682.331h64.915v-97.372h-64.915v97.372zM331.657 649.874h64.915v-97.372h-64.915v97.372zM331.657 260.385v-194.742h-194.745v194.742h194.745zM396.573 325.29999999999995h-324.574v-324.572h324.574v324.572z"  horiz-adv-x="1024" />

    
    <glyph glyph-name="21" unicode="&#58910;" d="M512-128c-6.4 0-6.4 0-12.8 0-38.4 12.8-76.8 25.6-108.8 38.4-153.6 51.2-320 108.8-320 320L70.4 723.2c0 19.2 12.8 32 32 32 256 0 390.4 134.4 390.4 134.4C492.8 889.6 505.6 896 512 896c0 0 0 0 0 0 6.4 0 19.2-6.4 25.6-12.8 0 0 134.4-134.4 390.4-134.4 19.2 0 32-12.8 32-32l0-486.4c0-211.2-172.8-268.8-320-320-38.4-12.8-76.8-25.6-108.8-38.4C518.4-128 518.4-128 512-128zM128 691.2l0-454.4c0-166.4 128-211.2 275.2-262.4C441.6-38.39999999999998 480-44.799999999999955 512-64c32 12.8 70.4 25.6 102.4 38.4 147.2 51.2 275.2 89.6 275.2 262.4L889.6 691.2c-204.8 6.4-332.8 89.6-384 134.4C460.8 780.8 332.8 697.6 128 691.2zM691.2 108.79999999999995L332.8 108.79999999999995c-19.2 0-32 12.8-32 32l0 256c0 19.2 12.8 32 32 32l358.4 0c19.2 0 32-12.8 32-32l0-256C723.2 128 710.4 108.79999999999995 691.2 108.79999999999995zM364.8 172.79999999999995l294.4 0 0 192L364.8 364.79999999999995 364.8 172.79999999999995zM652.8 371.20000000000005C633.6 371.20000000000005 620.8 384 620.8 403.2L620.8 486.4c0 57.6-51.2 108.8-108.8 108.8S403.2 544 403.2 486.4l0-83.2c0-19.2-12.8-32-32-32C352 371.20000000000005 339.2 384 339.2 403.2L339.2 486.4C339.2 576 416 652.8 512 652.8s172.8-76.8 172.8-172.8l0-83.2C684.8 384 672 371.20000000000005 652.8 371.20000000000005zM512 211.20000000000005c-19.2 0-32 12.8-32 32l0 64C480 320 492.8 332.79999999999995 512 332.79999999999995S544 320 544 300.79999999999995l0-64C544 224 531.2 211.20000000000005 512 211.20000000000005z"  horiz-adv-x="1024" />

    
    <glyph glyph-name="33" unicode="&#58937;" d="M503.679307 610.024169c4.267022 0 8.619385-0.170681 12.801067-0.426702L516.480373 609.768147l444.96508 0.170681C879.689307 779.254271 706.362864 896 505.812818 896 360.307359 896 229.224435 834.4695389999999 136.886074 736.072006l157.1971-274.881573C324.379032 547.810984 406.732561 610.024169 503.679307 610.024169zM358.51521 388.053671c0-80.134678 64.944079-145.164097 145.164097-145.164097s145.164097 64.944079 145.164097 145.164097S583.813984 533.217768 503.679307 533.217768 358.51521 468.188349 358.51521 388.053671zM548.227019 170.60621700000002C533.889824 167.61930199999995 518.955246 166.08317399999999 503.679307 166.08317399999999c-78.68389 0-147.72431 40.963414-187.151596 102.749896L316.101008 268.491708 85.511126 671.63997C31.490624 591.1639299999999 0 494.387866 0 390.187182c0-244.500375 173.497125-448.464039 404.001667-495.571964l-11.350279 6.827236L548.227019 170.60621700000002zM990.973248 533.388449L671.458622 533.217768c33.709476-38.915243 54.191183-89.692808 54.191183-145.164097 0-42.926244-12.203684-83.036253-33.368114-117.00175l-222.653221-385.226769c11.947662-0.853404 23.980665-1.450788 36.184349-1.450788 279.319277 0 505.812818 226.493541 505.812818 505.812818C1011.625635 439.940662 1004.371698 487.987332 990.973248 533.388449z"  horiz-adv-x="1024" />

    
    <glyph glyph-name="06" unicode="&#58964;" d="M745.304092-45.30355599999996M103.570355-45.30355599999996M953.136557 848.586131M962.480366 376.873696L962.480366 376.873696 962.480366 376.873696 962.480366 376.873696zM511.908414-73.69006999999999L511.908414-73.69006999999999c-225.535663 0-408.338059 182.77579-408.338059 408.337035 0 170.70794 104.799858 316.888254 253.449409 377.872187l0-0.100284c4.3951 1.568728 9.135054 2.412956 14.102183 2.412956 23.263843 0 42.258453-18.902512 42.258453-42.22366 0-18.35709-11.753695-34.059724-28.212552-39.848567l0-0.030699c-115.834168-49.27424-197.116403-164.197666-197.116403-298.051233 0-178.881087 144.978952-323.855946 323.855946-323.855946 178.884157 0 323.857992 145.005558 323.857992 323.855946 0 133.852544-81.219813 248.753457-197.150172 298.051233l0 0c-16.418948 5.762237-28.141944 21.464871-28.141944 39.845497 0 23.329335 18.888186 42.227754 42.22673 42.227754 4.910846 0 9.614985-0.844228 14.072507-2.412956l0 0.101307c148.772348-60.990073 253.449409-207.169363 253.449409-377.87321C920.256706 109.08572000000004 737.420541-73.69006999999999 511.908414-73.69006999999999M511.908414 362.79402600000003c-23.290449 0-42.219567 18.906605-42.219567 42.261523L469.688847 654.970458l0 85.396949 0 44.843324C469.658148 808.483784 488.617965 827.438485 511.908414 827.438485c23.328311 0 42.22673-18.933211 42.22673-42.227754l0-126.739543 0-84.479043L554.135144 405.079084C554.143331 381.72723699999995 535.244912 362.79402600000003 511.908414 362.79402600000003"  horiz-adv-x="1024" />

    
    <glyph glyph-name="23" unicode="&#58905;" d="M875.927081 692.591287c0 34.297131-27.900443 62.198597-62.194504 62.198597L210.270493 754.789884c-34.296107 0-62.198597-27.90249-62.198597-62.198597 0-13.729699 4.634554-27.140127 13.08911-37.983079l-0.453325-0.416486 6.363941-6.596232c1.462305-1.51654 197.48991-199.36563 209.848379-211.838709-0.004093-52.400441-0.01842-222.37467 0-223.606731l0.060375-4.03285 53.949726 0L430.930101 457.154114l-1.187035 1.197268c-1.934049 1.949398-194.319707 195.890482-220.958414 222.930325l0.232291 0.711198-4.542456 3.885494c-2.1295 1.821485-3.302209 4.206812-3.302209 6.716982 0 5.016247 4.081968 9.098215 9.099239 9.098215l603.456968 0c5.008061 0 9.081843-4.080945 9.081843-9.098215 0-2.51938-1.167592-4.904707-3.287883-6.715959l-4.981455-4.259 0.320295-0.753153c-27.163663-27.688619-213.603913-214.594473-221.62561-222.635613l-1.329275-1.332345L591.906399 39.63290500000005l53.30402 0.025583-0.016373 4.108574c-0.007163 1.544169-0.002047 257.93763-0.001023 354.459964l0.001023 37.257555 211.632002 211.996299 6.78452 6.782473-0.620124 0.539282C871.34574 665.612842 875.927081 678.952662 875.927081 692.591287z"  horiz-adv-x="1024" />

    
    <glyph glyph-name="07" unicode="&#59135;" d="M707.140202 79.31727799999999L223.331668 79.31727799999999c-40.931348 0-63.955231 22.0006-63.955231 61.806336L159.376436 413.726392 365.363446 413.726392l0-102.94234c0-11.358449 9.209553-20.568002 20.568002-20.568002l288.361347 0c11.358449 0 20.568002 9.209553 20.568002 20.568002L694.860797 413.726392l205.884681 0 0-59.350455 41.136005 0 0 59.350455c0 30.493854-41.136005 77.87189-41.136005 82.374338l-117.677626 205.884681c-27.01469 45.024483-78.076546 41.136005-123.612671 41.136005l-252.751074 0c-45.536125 0-97.211952 7.674628-123.612671-41.136005l-123.817328-205.884681c0-4.297792-41.136005-51.573499-41.136005-82.374338l0-293.17078c0-45.536125 36.838213-82.374338 82.374338-82.374338l506.525432 0L707.037873 79.31727799999999zM196.521635 485.765564l107.34246 180.20026c23.740182 42.773259 70.29959 36.019586 111.230938 36.019586l236.276207 0c40.931348 0 86.876786 3.376836 111.230938-36.019586L863.702608 485.765564c0-2.148896 10.744479-15.144599 20.670331-30.903168L653.622464 454.862396l0-20.568002 0-20.568002 0-82.374338L406.49945 331.35205399999995l0 82.374338 0 20.568002 0 20.568002L175.646647 454.862396C185.674828 470.723294 196.521635 483.718997 196.521635 485.765564zM720.44289 190.65054499999997l288.15669 0 0-41.954632-288.15669 0 0 41.954632ZM843.583111 25.59713499999998l0 288.15669 41.954632 0 0-288.15669-41.954632 0Z"  horiz-adv-x="1024" />

    
    <glyph glyph-name="39" unicode="&#58926;" d="M382.302164 548.030025C373.395456 548.030025 366.205703 540.818798 366.205703 531.93355L366.205703-57.56167300000004C366.205703-66.44692099999997 373.395456-73.65807500000005 382.302164-73.65807500000005 391.165945-73.65807500000005 398.398625-66.44692099999997 398.398625-57.56167300000004L398.398625 531.93355C398.398625 540.818798 391.165945 548.030025 382.302164 548.030025L382.302164 548.030025ZM89.239318 303.79307900000003C80.35407 303.79307900000003 73.142857 296.58192499999996 73.142857 287.696677L73.142857-57.56167300000004C73.142857-66.44692099999997 80.35407-73.65807500000005 89.239318-73.65807500000005 98.124559-73.65807500000005 105.335771-66.44692099999997 105.335771-57.56167300000004L105.335771 287.696677C105.335771 296.58192499999996 98.124559 303.79307900000003 89.239318 303.79307900000003L89.239318 303.79307900000003ZM968.384936 503.73259C959.499696 503.73259 952.309943 496.521362 952.309943 487.636114L952.309943-57.56167300000004C952.309943-66.44692099999997 959.499696-73.65807500000005 968.384936-73.65807500000005 977.270184-73.65807500000005 984.502857-66.44692099999997 984.502857-57.56167300000004L984.502857 487.636114C984.502857 496.521362 977.270184 503.73259 968.384936 503.73259L968.384936 503.73259ZM963.448693 686.181157C972.333941 686.288457 979.480766 693.56405 979.394918 702.449298L978.19305 806.947474C978.150122 811.411602 976.218551 815.661056 972.913408 818.687195 969.608272 821.691831 965.251496 823.15125 960.723024 822.807845L856.58967 813.987035C847.72589 813.235858 841.158532 805.466624 841.888241 796.602807 842.639411 787.739063 850.558866 781.364882 859.293879 781.901385L922.585154 787.266853 675.536713 515.301157 392.81852 792.267483C386.6804 798.276827 376.958142 798.448567 370.669787 792.653824L78.894658 525.7959860000001C72.327303 519.786642 71.876602 509.613714 77.885945 503.046363 83.895289 496.479013 94.068253 496.049737 100.614144 502.03765L381.164683 758.615186 664.95597 480.618642C667.960642 477.656869 672.016955 476.025783 676.223495 476.025783L676.695654 476.025783C681.052431 476.154514 685.194584 478.06464 688.134868 481.28395L946.472294 765.654674 947.180537 702.084462C947.287852 693.2635789999999 954.456137 686.181157 963.298458 686.181157L963.448693 686.181157 963.448693 686.181157ZM675.34355 304.415525C666.458309 304.415525 659.247097 297.204297 659.247097 288.31904899999995L659.247097-57.56167300000004C659.247097-66.44692099999997 666.458309-73.65807500000005 675.34355-73.65807500000005 684.228798-73.65807500000005 691.440011-66.44692099999997 691.440011-57.56167300000004L691.440011 288.31904899999995C691.440011 297.204297 684.228798 304.415525 675.34355 304.415525L675.34355 304.415525Z"  horiz-adv-x="1024" />

    
    <glyph glyph-name="16" unicode="&#58925;" d="M305.109999 384m-64.954361 0a63.475 63.475 0 1 1 129.908722 0 63.475 63.475 0 1 1-129.908722 0ZM510.401596 384m-64.954361 0a63.475 63.475 0 1 1 129.908722 0 63.475 63.475 0 1 1-129.908722 0ZM715.693192 384m-64.954361 0a63.475 63.475 0 1 1 129.908722 0 63.475 63.475 0 1 1-129.908722 0ZM978.883453 581.488887c-25.555026 60.418045-62.131059 114.671693-108.714004 161.254637-46.582945 46.582945-100.837616 83.160002-161.254637 108.714004C646.347824 877.922273 579.902506 891.339864 511.425925 891.339864c-68.476581 0-134.921899-13.418614-197.488887-39.882336-60.418045-25.554002-114.671693-62.131059-161.254637-108.714004-46.582945-46.582945-83.161025-100.837616-108.715027-161.254637C17.503653 518.9218989999999 4.085038 452.477604 4.085038 384S17.503653 249.07810099999995 43.967374 186.51111300000002c25.554002-60.417021 62.131059-114.671693 108.715027-161.254637s100.837616-83.160002 161.254637-108.714004c62.566988-26.463722 129.012306-39.882336 197.488887-39.882336 68.476581 0 134.921899 13.417591 197.488887 39.882336 60.417021 25.555026 114.671693 62.131059 161.254637 108.714004s83.160002 100.837616 108.714004 161.254637c26.463722 62.568011 39.882336 129.012306 39.882336 197.48991S1005.348198 518.9218989999999 978.883453 581.488887zM922.336576 210.428849c-22.459524-53.099359-54.617945-100.792591-95.581915-141.756561s-88.658226-73.122391-141.756561-95.581915c-54.958706-23.245424-113.355721-35.030841-173.571151-35.030841s-118.613468 11.786441-173.571151 35.030841c-53.099359 22.459524-100.792591 54.617945-141.757584 95.581915-40.96397 40.96397-73.122391 88.658226-95.581915 141.756561C77.269851 265.387555 65.48341 323.78457000000003 65.48341 384c0 60.21543 11.786441 118.613468 35.031864 173.571151 22.459524 53.098335 54.617945 100.792591 95.581915 141.756561 40.964994 40.964994 88.658226 73.123414 141.757584 95.581915 54.958706 23.245424 113.355721 35.031864 173.571151 35.031864s118.612445-11.786441 173.571151-35.031864c53.099359-22.458501 100.792591-54.616922 141.756561-95.581915 40.96397-40.96397 73.122391-88.658226 95.581915-141.756561 23.245424-54.958706 35.030841-113.355721 35.030841-173.571151C957.367417 323.78457000000003 945.580976 265.387555 922.336576 210.428849z"  horiz-adv-x="1024" />

    
    <glyph glyph-name="08" unicode="&#58912;" d="M772.102946 93.71770700000002L772.102946 27.558914999999956 772.102946 93.71770700000002ZM548.679387-35.310970999999995L548.679387 365.62551399999995 895.478881 557.647899l0.029676-254.140141 57.290821 0-0.038886 332.669682L516.033873 888.254595 79.366605 636.0761319999999l0.059352-504.253572 436.726619-252.076132 255.951393 147.81351 0 66.157769L548.679387-35.310970999999995zM480.497519-33.52530200000001L136.712685 164.90605000000005l-0.046049 397.695674L480.497519 362.23120700000004 480.497519-33.52530200000001zM501.285984 428.294832L169.218006 621.808174 516.042059 822.10092l351.349113-202.796776L522.42135 428.294832 501.285984 428.294832zM1023.978511 187.26938299999995L928.742473 187.26938299999995 928.742473 279.434479 867.337961 279.434479 867.337961 187.26938299999995 772.102946 187.26938299999995 772.102946 125.86487199999999 867.337961 125.86487199999999 867.337961 27.558914999999956 928.742473 27.558914999999956 928.742473 125.86487199999999 1023.978511 125.86487199999999Z"  horiz-adv-x="1024" />

    
    <glyph glyph-name="48" unicode="&#59240;" d="M912.486 443.959v0h-687.071c-25.518 0-47.091-16.669-54.521-39.729v0l-59.946-184.682v510.65h286.299c0-63.238 51.229-114.467 114.471-114.467v0h286.236v-114.469h57.229v114.469c0 31.588-25.639 57.236-57.229 57.236h-286.304c-31.586 0-57.234 25.645-57.234 57.231v0c0 31.589-25.58 57.234-57.234 57.234v0h-286.236c-31.587 0-57.234-25.646-57.234-57.234v-686.941c0-31.589 25.646-57.229 57.234-57.229h686.943c25.518 0 47.091 16.663 54.521 39.729h0.063l117.116 360.974c0.001 31.587-25.516 57.169-57.106 57.234v0zM800.864 43.253h-689.914l111.498 343.471h689.909l-111.494-343.471z"  horiz-adv-x="1024" />

    
    <glyph glyph-name="22" unicode="&#58899;" d="M568.889116 896l0-455.110884 455.108837 0L1023.997953 896 568.889116 896zM967.109349 497.777721l-341.333674 0L625.775674 839.111395l341.333674 0L967.109349 497.777721zM113.778233 554.6673490000001l227.555442 0L341.333674 782.222791 113.778233 782.222791 113.778233 554.6673490000001zM0.001023-127.99897699999997l455.110884 0L455.111907 327.111907 0.001023 327.111907 0.001023-127.99897699999997zM56.889628 270.22227899999996l341.333674 0 0-341.333674L56.889628-71.11139500000002 56.889628 270.22227899999996zM910.220744 782.222791L682.665302 782.222791l0-227.555442 227.555442 0L910.220744 782.222791zM0.001023 440.889116l455.110884 0L455.111907 896 0.001023 896 0.001023 440.889116zM56.889628 839.111395l341.333674 0 0-341.333674L56.889628 497.777721 56.889628 839.111395zM910.220744-127.99897699999997l113.778233 0L1023.998977 99.556465 910.220744 99.556465 910.220744-127.99897699999997zM910.220744 213.334698l113.778233 0L1023.998977 327.111907 910.220744 327.111907 910.220744 213.334698zM113.778233-14.220743999999968l227.555442 0L341.333674 213.334698 113.778233 213.334698 113.778233-14.220743999999968zM739.553907 327.111907L568.889116 327.111907l0-170.666837 170.664791 0 0-56.888605 113.778233 0L853.332139 213.334698 739.553907 213.334698 739.553907 327.111907zM568.889116-127.99897699999997L796.442512-127.99897699999997 796.442512-14.220743999999968 568.889116-14.220743999999968 568.889116-127.99897699999997z"  horiz-adv-x="1024" />

    
    <glyph glyph-name="42" unicode="&#59003;" d="M777.062847-86.69912199999999L243.477019-86.69912199999999c-62.648924 0-88.733239 44.949324-93.801802 68.715211-2.771121 15.587632-64.594005 362.087705-77.397524 457.166041-4.667236 34.740846 1.841152 62.475042 19.284125 82.438107 16.586354 18.933963 42.753413 29.375883 73.688239 29.375883 7.150352 0 12.830301-0.558821 15.924803-0.956751l658.191746 0c3.093303 0.401328 8.773252 0.956751 15.920006 0.956751 30.939423 0 57.101885-10.44192 73.664855-29.388674 17.471954-19.950274 23.95256-47.68447 19.285325-82.425316-12.776737-95.064346-74.599422-441.577411-77.210851-456.286238C865.796086-41.749798000000055 839.712971-86.69912199999999 777.062847-86.69912199999999L777.062847-86.69912199999999zM165.249857 496.378551c-8.664725 0-24.402855-1.403648-32.562523-10.720731-8.268194-9.444197-7.976392-26.526415-6.266951-39.206218 12.616846-93.906931 76.221322-450.365852 76.864286-453.95282 1.276535-4.721998 8.774451-24.576737 40.19235-24.576737l533.585829 0c34.566964 0 40.142184 24.416845 40.351042 25.455341 0.483072 2.706965 64.088748 359.166085 76.677613 453.072817 1.709441 12.679803 2.001043 29.762021-6.23897 39.206218-8.164265 9.320481-23.897597 10.720731-32.567119 10.720731-5.200474 0-8.878181-0.492466-9.598292-0.601992-1.413042-0.222849-2.986975-0.360556-4.403614-0.360556L179.251763 495.414605c-1.517971 0-3.040738 0.137707-4.558709 0.387337C174.159616 495.881488 170.450331 496.378551 165.249857 496.378551L165.249857 496.378551zM242.035996 351.040491c0-14.94107 6.153828-29.790202 16.718265-40.355639 10.565636-10.565437 25.415768-16.713468 40.355639-16.713468 14.94107 0 29.791202 6.149231 40.355639 16.713468 10.565636 10.565636 16.713468 25.414569 16.713468 40.355639 0 14.94107-6.148032 29.790202-16.713468 40.355639-10.564437 10.565636-25.414569 16.713468-40.355639 16.713468-14.939871 0-29.790202-6.148032-40.355639-16.713468C248.189823 380.830693 242.035996 365.98176 242.035996 351.040491L242.035996 351.040491zM664.360859 351.040491c0-14.94107 6.148032-29.790202 16.713468-40.355639 10.564437-10.565437 25.414569-16.713468 40.355639-16.713468 14.939871 0 29.790202 6.149231 40.355639 16.713468 10.564437 10.565636 16.713468 25.414569 16.713468 40.355639 0 14.94107-6.15023 29.790202-16.713468 40.355639-10.565636 10.565636-25.415768 16.713468-40.355639 16.713468-14.94127 0-29.791202-6.148032-40.355639-16.713468C670.508891 380.830693 664.360859 365.98176 664.360859 351.040491L664.360859 351.040491zM753.781232 588.160723c-15.095165 0-27.309484 12.228309-27.309484 27.310683 0 109.762781-97.002432 199.066633-216.213008 199.066633-119.216371 0-216.189623-89.303852-216.189623-199.066633 0-15.082374-12.215518-27.310683-27.310683-27.310683-15.096365 0-27.311683 12.228309-27.311683 27.310683 0 139.886557 121.482435 253.6878 270.811989 253.6878 149.326157 0 270.832975-113.801243 270.832975-253.6878C781.091916 600.388832 768.878796 588.160723 753.781232 588.160723L753.781232 588.160723z"  horiz-adv-x="1024" />

    
    <glyph glyph-name="12" unicode="&#59109;" d="M926.623744 394.257408C854.541312 559.0917119999999 691.791872 665.6 512 665.6S169.458688 559.0917119999999 97.376256 394.257408c-2.859008-6.539264-2.859008-13.974528 0-20.513792C169.458688 208.90828799999997 332.208128 102.39999999999998 512 102.39999999999998s342.541312 106.508288 414.623744 271.342592C929.482752 380.28185599999995 929.482752 387.718144 926.623744 394.257408zM512 153.60000000000002c-155.689984 0-296.967168 90.053632-363.056128 230.4C215.032832 524.346368 356.310016 614.4 512 614.4s296.967168-90.053632 363.056128-230.4C808.967168 243.65363200000002 667.689984 153.60000000000002 512 153.60000000000002zM618.210304 483.623936c-11.844608-7.719936-15.188992-23.580672-7.468032-35.42528C623.183872 429.108224 629.76 406.909952 629.76 384c0-64.932864-52.827136-117.76-117.76-117.76s-117.76 52.827136-117.76 117.76 52.827136 117.76 117.76 117.76c11.736064 0 23.31136-1.7152 34.4064-5.098496 13.52192-4.123648 27.829248 3.495936 31.95392 17.019904 4.124672 13.523968-3.495936 27.830272-17.019904 31.95392C545.401856 550.495232 528.800768 552.96 512 552.96c-93.164544 0-168.96-75.795456-168.96-168.96s75.795456-168.96 168.96-168.96 168.96 75.795456 168.96 168.96c0 32.861184-9.449472 64.728064-27.324416 92.15488C645.914624 487.999488 630.054912 491.342848 618.210304 483.623936z"  horiz-adv-x="1024" />

    
    <glyph glyph-name="52" unicode="&#58914;" d="M873.657333 745.664C773.864 845.46 643.358667 895.786667 511.998667 895.786667S250.136 845.46 150.336 745.664c-200.449333-199.596-200.449333-523.729333 0-723.321333 99.8-99.8 230.302667-150.126667 361.662667-150.126667s261.865333 50.326667 361.658667 150.126667C1074.110667 221.934667 1074.110667 546.068 873.657333 745.664zM837.837333 58.162667000000056c-87.006667-87-203.013333-134.766667-325.838667-134.766667-122.829333 0-238.833333 47.766667-325.836 134.766667C99.16 145.168 51.393333 261.174667 51.393333 384.001333c0 122.829333 47.766667 238.833333 134.769333 325.836S389.169333 844.606667 511.998667 844.606667c122.826667 0 238.833333-47.766667 325.838667-134.769333 87-87.002667 134.766667-203.006667 134.766667-325.836C972.604 261.174667 924.837333 145.168 837.837333 58.162667000000056zM728.652 551.184L448.025333 270.554667 295.342667 423.237333c-10.236 10.236-26.442667 10.236-35.822667 0-10.236-10.236-10.236-26.442667 0-35.822667l170.593333-170.6c5.12-5.113333 11.942667-7.673333 17.913333-7.673333 5.970667 0 12.793333 2.56 17.913333 7.673333l298.538667 298.545333c10.24 10.233333 10.24 26.44 0 35.822667C754.245333 561.421333 738.892 561.421333 728.652 551.184z"  horiz-adv-x="1024" />

    
    <glyph glyph-name="03" unicode="&#59041;" d="M372.352-126.87360000000001h-35.0208c-90.8384 0-151.6672 13.4848-182.496 40.4544-30.8256 26.9696-46.24 80.7296-46.24 161.2768v109.3408c0 39.7248-11.216 73.984-33.6512 102.7776-22.4352 28.7936-25.184 43.1904-72.2432 43.1904v78.176c51.4368 0 55.28 12.2112 75.5264 36.6304 20.2464 24.4192 30.368 60.32 30.368 107.6992V694.816c0 80.544 15.4144 134.2144 46.24 161.0016C185.664 882.6048 246.496 896 337.3312 896h35.0208v-78.176h-38.304c-51.072 0-84.3616-7.9296-99.8656-23.7824-15.504-15.856-23.2576-49.6608-23.2576-101.4144v-146.5152c0-64.1472-12.5856-107.2448-37.76-129.2928-25.168-22.0512-42.2336-37.9968-115.1968-47.84 70.7744-8.3808 87.2928-24.5088 113.5584-48.3808 26.2656-23.872 39.3984-66.9696 39.3984-129.2928v-114.2624c0-52.1184 7.7536-86.016 23.2576-101.6864 15.504-15.6704 48.7936-23.5072 99.8656-23.5072h38.304v-78.7232z m283.1488 0h35.0208c90.8384 0 151.6672 13.4848 182.496 40.4544 30.8256 26.9696 46.24 80.7296 46.24 161.2768v109.3408c0 39.7248 11.216 73.984 33.6512 102.7776 22.4352 28.7936 25.184 43.1904 72.2432 43.1904v78.176c-51.4368 0-55.28 12.2112-75.5264 36.6304-20.2464 24.4192-30.368 60.32-30.368 107.6992V694.816c0 80.544-15.4144 134.2144-46.24 161.0016C842.1888 882.6048 781.36 896 690.5216 896h-35.0208v-78.176h38.304c51.072 0 84.3616-7.9296 99.8656-23.7824 15.504-15.856 23.2576-49.6608 23.2576-101.4144v-146.5152c0-64.1472 12.5856-107.2448 37.7568-129.2928 25.1712-22.0512 42.24-37.9968 115.2-47.84-70.7744-8.3808-87.2928-24.5088-113.5584-48.3808-26.2656-23.872-39.3984-66.9696-39.3984-129.2928v-114.2624c0-52.1184-7.7536-86.016-23.2576-101.6864-15.504-15.6704-48.7936-23.5072-99.8656-23.5072h-38.304v-78.7232zM291.0272 184.23360000000002h112.3104v-111.0624H291.0272v111.0624z m168.1024 0h112.3104v-111.0624h-112.3104v111.0624z m168.1024 0h112.3104v-111.0624H627.232v111.0624z"  horiz-adv-x="1027" />

    
    <glyph glyph-name="18" unicode="&#58933;" d="M336.842105 384l431.157895 441.936842c16.168421 16.168421 16.168421 40.421053 0 56.589474-16.168421 16.168421-40.421053 16.168421-56.589474 0L253.305263 413.642105c-16.168421-16.168421-16.168421-40.421053 0-56.589473l460.8-471.578948c8.084211-8.084211 18.863158-10.778947 26.947369-10.778947 10.778947 0 18.863158 2.694737 26.947368 10.778947 16.168421 16.168421 16.168421 40.421053 0 56.589474L336.842105 384z"  horiz-adv-x="1024" />

    
    <glyph glyph-name="09" unicode="&#59169;" d="M992 307.2256c0-14.08-11.52-25.6-25.6-25.6l-140.8 0 0-140.8c0-14.08-11.52-25.6-25.6-25.6s-25.6 11.52-25.6 25.6l0 140.8-140.8 0c-14.08 0-25.6 11.52-25.6 25.6 0 14.08 11.52 25.6 25.6 25.6l140.8 0 0 140.8c0 14.08 11.52 25.6 25.6 25.6s25.6-11.52 25.6-25.6l0-140.8 140.8 0C980.48 332.8256 992 321.3056 992 307.2256zM825.5872 17.855999999999995L825.5872 12.799999999999955c0-56.32-46.08-102.4-102.4-102.4L134.4-89.60000000000002c-56.32 0-102.4 46.08-102.4 102.4L32 448l0 51.1744L32 499.2l0.0256 0L390.4 857.5616 390.4 857.6l0.0384 0L441.6 857.6l281.5872 0c56.32 0 102.4-46.08 102.4-102.4l0-174.1312c0-14.144-11.456-25.6-25.6-25.6s-25.6 11.456-25.6 25.6L774.3872 755.2c0 28.2752-22.9248 51.2-51.2 51.2L441.6 806.4l0-307.2c0-28.2752-22.9248-51.2-51.2-51.2l-307.2 0L83.2 12.799999999999955c0-28.2752 22.9248-51.2 51.2-51.2l588.7872 0c28.2752 0 51.2 22.9248 51.2 51.2l0 5.056c0 14.144 11.456 25.6 25.6 25.6S825.5872 32 825.5872 17.855999999999995zM108.8256 499.2L364.8 499.2c14.144 0 25.6 11.456 25.6 25.6L390.4 780.7616 108.8256 499.2z"  horiz-adv-x="1024" />

    
    <glyph glyph-name="13" unicode="&#58883;" d="M939.77098 384.764988C935.152941 424.29942 882.42698 492.766871 801.711686 550.914008L758.02102 507.223341C831.10651 456.284361 877.387294 398.498635 879.816784 379.34381199999996 874.937725 342.399498 710.957176 164.40420400000005 503.105255 163.76169400000003 502.784 163.78177300000004 502.442667 163.78177300000004 502.101333 163.78177300000004 474.955294 163.82192899999995 448.592314 167.01440000000002 423.193098 172.39541999999994L373.719843 122.94224299999996C414.619608 110.85502699999995 457.808314 103.586635 502.302118 103.52639999999997L502.563137 103.52639999999997 502.603294 103.54647799999998C733.364706 103.84765500000003 930.534902 295.47620400000005 939.77098 373.741929 940.052078 375.44859599999995 940.212706 377.19542 940.212706 378.9824L940.212706 379.30365500000005 940.212706 379.604831C940.212706 381.37173299999995 940.052078 383.098478 939.77098 384.764988ZM764.54651 641.529976C758.663529 647.412957 750.953412 650.3444079999999 743.243294 650.3444079999999 735.553255 650.3444079999999 727.843137 647.412957 721.960157 641.529976L240.077804 159.64762399999995C228.311843 147.881663 228.311843 128.82723099999998 240.077804 117.06127100000003 245.960784 111.17828999999995 253.670902 108.22676100000001 261.360941 108.22676100000001 269.071059 108.22676100000001 276.781176 111.17828999999995 282.664157 117.06127100000003L764.54651 598.943624C776.312471 610.709584 776.312471 629.7640160000001 764.54651 641.529976ZM124.801506 379.23538799999994C129.680565 416.179702 293.480408 593.954133 501.091388 594.817506 501.573271 594.797427 502.055153 594.777349 502.516957 594.777349 529.683075 594.757271 556.025976 591.5648 581.425192 586.1837800000001L630.918525 635.6771140000001C590.099075 647.744251 546.990682 654.992565 502.557114 655.0527999999999 502.075231 655.0527999999999 501.533114 655.032722 501.011075 655.012643 270.510682 654.149271 73.782212 462.701427 64.84731 384.676643 64.566212 383.010133 64.425663 381.32354499999997 64.425663 379.61687800000004L64.425663 379.295624 64.425663 378.974369C64.425663 377.267702 64.566212 375.60119199999997 64.827231 373.974839 69.304722 334.48056499999996 122.070839 265.91272200000003 202.926682 207.68527099999994L246.597271 251.355859C173.51178 302.31491800000003 127.230996 360.100643 124.801506 379.23538799999994ZM502.310149 230.37389800000005C584.410855 230.37389800000005 651.231875 297.174839 651.231875 379.295624 651.231875 385.981741 650.629522 392.52731 649.766149 398.972486L482.613208 231.83962399999996C489.078463 230.97625100000005 495.624031 230.37389800000005 502.310149 230.37389800000005ZM353.398463 379.295624C353.398463 372.609506 354.000816 366.063937 354.864188 359.61876099999995L521.976973 526.751624C515.531796 527.594918 508.986227 528.197271 502.320188 528.197271 420.199404 528.197271 353.398463 461.396329 353.398463 379.295624Z"  horiz-adv-x="1024" />

    
    <glyph glyph-name="11" unicode="&#58932;" d="M306.714 236.00300000000004v474.393h-63.167v-474.393h-157.913l189.495-189.497 189.495 189.495-157.911 0.001zM938.365 4.92999999999995h-94.747v63.165h94.747v-63.165zM812.036 4.92999999999995h-94.748v63.165h94.748v-63.165zM685.708 4.92999999999995h-63.167v94.747h63.167v-94.747zM938.365 226.00900000000001h-63.165v94.749h63.165v-94.749zM843.619 257.59000000000003h-94.748v63.167h94.748v-63.167zM717.289 257.591h-94.748v63.167h94.748v-63.167zM938.365 99.67899999999997h-63.165v94.748h63.165v-94.748zM685.708 131.26099999999997h-63.167v94.748h63.167v-94.748zM685.708 510.253v189.494h189.497v-189.494h-189.497zM622.54 447.087h315.826v315.824h-315.826v-315.824z"  horiz-adv-x="1024" />

    
    <glyph glyph-name="14" unicode="&#58884;" d="M823.652 617.739H200.348v77.913h623.304v-77.913z m0-194.782H200.348v-77.913h623.304v77.913z m0-272.696H200.348v-77.913h623.304v77.913z"  horiz-adv-x="1024" />

    
    <glyph glyph-name="47" unicode="&#58913;" d="M512 10.240000000000009c-5.12 0-7.68 0-12.8 2.56-76.8 25.6-140.8 74.24-194.56 143.36-40.96 53.76-71.68 122.88-94.72 202.24-38.4 133.12-38.4 250.88-38.4 256 0 20.48 15.36 38.4 35.84 40.96 2.56 0 168.96 17.92 281.6 104.96l10.24 5.12h2.56l5.12-15.36-2.56 17.92h5.12l10.24-2.56c2.56 0 2.56 0 5.12-2.56l5.12-2.56c115.2-87.04 281.6-104.96 284.16-104.96l-2.56-17.92 2.56 17.92c20.48-2.56 35.84-17.92 35.84-40.96 0-5.12 0-122.88-38.4-256-23.04-79.36-56.32-145.92-94.72-202.24-51.2-69.12-117.76-117.76-194.56-143.36-2.56 0-5.12-2.56-10.24-2.56z m-10.24 734.72l7.68-15.36c-122.88-92.16-299.52-110.08-299.52-110.08-2.56 0-5.12-2.56-5.12-5.12 0-5.12 0-117.76 38.4-245.76 23.04-74.24 53.76-138.24 89.6-189.44 48.64-64 107.52-107.52 176.64-130.56l7.68-15.36-5.12 15.36c69.12 23.04 130.56 66.56 176.64 130.56 38.4 51.2 69.12 115.2 89.6 189.44 38.4 128 38.4 240.64 38.4 245.76 0 2.56-2.56 5.12-5.12 5.12s-176.64 17.92-299.52 110.08h-2.56l-7.68 15.36zM488.96 296.96000000000004c-7.68 0-15.36 2.56-23.04 7.68 0 0-2.56 0-2.56 2.56l-74.24 69.12c-7.68 7.68-7.68 17.92 0 25.6 7.68 7.68 17.92 7.68 25.6 0L486.4 332.79999999999995c5.12-2.56 10.24 2.56 10.24 2.56l138.24 189.44c5.12 7.68 15.36 10.24 23.04 2.56 7.68-5.12 10.24-15.36 2.56-23.04l-138.24-189.44c-7.68-10.24-20.48-17.92-33.28-17.92z"  horiz-adv-x="1024" />

    
    <glyph glyph-name="38" unicode="&#58893;" d="M713.173333 301.62773300000003c-54.5792 0-98.978133-44.407467-98.978133-98.9952s44.398933-98.986667 98.978133-98.986666 98.9952 44.398933 98.9952 98.986666-44.407467 98.9952-98.9952 98.9952z m0-155.3152a56.379733 56.379733 0 0 0-56.311466 56.32c0 31.061333 25.258667 56.328533 56.311466 56.328534a56.388267 56.388267 0 0 0 56.328534-56.328534c0-31.0528-25.2672-56.32-56.328534-56.32zM936.439467 142.4896a21.2992 21.2992 0 0 1-9.864534 13.0048l-39.714133 23.210667a174.5408 174.5408 0 0 1 0.4608 44.398933l38.8864 23.1424a21.333333 21.333333 0 0 1 7.424 29.243733l-47.650133 80.093867a21.333333 21.333333 0 0 1-29.482667 7.278933l-34.986667-21.469866c-11.972267 8.951467-24.576 15.9488-34.926933 20.9664V398.933333a21.333333 21.333333 0 0 1-21.333333 21.333334h-102.4a21.333333 21.333333 0 0 1-21.333334-21.333334v-33.245866c-15.223467-6.024533-26.9056-13.994667-37.794133-23.057067l-31.530667 19.080533a21.3504 21.3504 0 0 1-29.533866-7.620266l-46.250667-80.452267a21.333333 21.333333 0 0 1 7.799467-29.090133l34.670933-20.087467a184.200533 184.200533 0 0 1-1.2544-21.8368c0-9.361067 0.776533-18.7648 2.312533-28.117333l-34.696533-20.676267a21.316267 21.316267 0 0 1-7.415467-29.2352l47.6672-80.085333a21.316267 21.316267 0 0 1 29.7728-7.099734l33.4848 21.2736c9.0624-7.338667 18.901333-14.114133 32.768-19.396266v-49.962667a21.333333 21.333333 0 0 1 21.333334-21.333333h102.4a21.333333 21.333333 0 0 1 21.333333 21.333333v53.384533a203.434667 203.434667 0 0 1 32.256 19.037867l38.9376-23.406933a21.316267 21.316267 0 0 1 29.405867 7.517866l47.0272 80.452267c2.8672 4.8896 3.669333 10.717867 2.2272 16.1792z m-75.170134-56.448l-33.1776 19.9424a21.3248 21.3248 0 0 1-25.1904-2.363733c-11.7504-10.487467-28.305067-20.343467-45.422933-27.0592a21.333333 21.333333 0 0 1-13.550933-19.857067v-46.037333h-59.733334v44.373333a21.333333 21.333333 0 0 1-16.3584 20.744533c-18.807467 4.514133-26.837333 11.3664-40.123733 22.7072l-3.387733 2.884267a21.3504 21.3504 0 0 1-25.233067 1.732267l-28.151467-17.8944-25.5232 42.88 29.474134 17.570133a21.333333 21.333333 0 0 1 9.736533 23.688533 132.181333 132.181333 0 0 0-4.317867 33.271467c0 10.077867 0.964267 19.618133 2.875734 28.356267a21.333333 21.333333 0 0 1-10.146134 23.005866l-29.021866 16.8192 24.772266 43.101867 26.257067-15.880533a21.2992 21.2992 0 0 1 25.437867 2.5088c15.761067 14.404267 26.845867 23.560533 47.803733 29.064533a21.316267 21.316267 0 0 1 15.914667 20.6336V377.6h59.733333v-29.013333a21.333333 21.333333 0 0 1 13.166933-19.712c19.054933-7.901867 36.565333-18.56 48.017067-29.243734a21.333333 21.333333 0 0 1 25.7024-2.5856l29.568 18.133334 25.685333-43.1872-32.989866-19.6352a21.333333 21.333333 0 0 1-9.984-22.664534 133.290667 133.290667 0 0 0-0.682667-57.053866 21.333333 21.333333 0 0 1 10.018133-23.236267l34.210134-19.9936-25.378134-43.3664zM569.966933 14.660266999999976c-30.737067-2.653867-62.651733-3.9936-94.839466-3.9936-208.366933 0-341.333333 54.331733-341.333334 91.733333 0 4.778667-1.6128 9.130667-4.266666 12.680533V228.0448c65.698133-47.650133 206.2336-72.311467 345.6-72.311467a21.333333 21.333333 0 1 1 0 42.666667c-208.366933 0-341.333333 54.331733-341.333334 91.733333a21.077333 21.077333 0 0 1-4.266666 12.680534V415.778133c65.698133-47.658667 206.2336-72.311467 345.6-72.311466 5.7856 0 11.537067 0.008533 17.2544 0.1024a21.290667 21.290667 0 0 1-0.3072 42.564266h-0.324267c-5.512533 0-11.0592-0.059733-16.622933-0.059733-208.366933 0-341.333333 54.391467-341.333334 91.793067a21.077333 21.077333 0 0 1-4.266666 12.680533V603.511467c65.698133-47.650133 206.2336-72.311467 345.6-72.311467 133.597867 0 268.270933 22.656 337.066666 66.517333V403.2a21.333333 21.333333 0 1 1 42.666667 0V643.771733c2.7392 6.971733 4.266667 14.2336 4.266667 21.828267 0 88.234667-193.1776 134.4-384 134.4-185.8048 0-373.777067-43.784533-383.530667-127.547733a21.137067 21.137067 0 0 1-4.736-13.252267v-563.2c0-7.355733 3.729067-13.841067 9.386667-17.672533 31.7184-72.533333 206.250667-110.327467 378.88-110.327467 33.408 0 66.551467 1.390933 98.5088 4.138667 11.733333 1.015467 20.437333 11.349333 19.421866 23.0912s-11.349333 20.360533-23.0912 19.4304zM475.127467 757.333333c190.984533 0 318.5408-45.636267 338.5088-82.056533a21.333333 21.333333 0 0 1-1.442134-7.543467v-14.190933c-24.064-35.9936-150.212267-79.675733-337.066666-79.675733-208.366933 0-341.333333 54.331733-341.333334 91.733333s132.9664 91.733333 341.333334 91.733333z"  horiz-adv-x="1024" />

    
    <glyph glyph-name="41" unicode="&#59546;" d="M896.785793 480.000363h-32.064999v-576.000726c0-17.669447-14.35924-31.999637-32.066451-31.999637H127.22147C109.512806-128 95.156471-113.66980999999998 95.156471-96.000363V864.000363C95.156471 881.672715 109.512806 896 127.22147 896h705.432873c17.707211 0 32.066451-14.327285 32.066451-31.999637v-96.000363h32.064999c17.705759 0 32.064999-14.327285 32.064998-31.999637v-224.000363c0-17.672352-14.35924-31.999637-32.064998-31.999637zM832.654343 864.000363H127.22147v-960.000726h705.432873V480.000363H351.677912c-17.708664 0-32.064999 14.327285-32.064999 31.999637V736.000363c0 17.672352 14.356335 31.999637 32.064999 31.999637h480.976431V864.000363zM674.589413 585.6945929999999a10.152851 10.152851 0 0 1 9.473089-5.679206h3.673328c2.084312 0 3.962372 0.479319 5.580437 1.43941 1.619518 0.960091 2.916584 2.370451 3.878127 4.239796l30.958207 59.920703a126.296238 126.296238 0 0 1-0.480771-10.559546v-67.040771h23.888976v116.480363h-23.758253a5.502003 5.502003 0 0 1-4.24851-1.647115 9.027177 9.027177 0 0 1-1.654378-2.353021l-29.980686-58.943183a141.91478 141.91478 0 0 1-6.011824-13.297475 159.470933 159.470933 0 0 1-2.835246 6.720635c-1.01238 2.177271-2.020403 4.28918-3.112669 6.33718l-30.060573 59.182843a10.21095 10.21095 0 0 1-1.648568 2.353021 5.088045 5.088045 0 0 1-1.878059 1.24623c-0.687024 0.273067-1.488794 0.400885-2.355927 0.400885h-23.762609v-116.480363h23.888975v67.040771a108.041441 108.041441 0 0 1-0.641997 10.639433l31.088931-60.00059z m-65.55924 77.42602v21.438638h-92.807807v-21.438638h32.866769v-95.120159h27.075722v95.120159h32.865316z m-178.759898-27.280522v48.71916h-27.25583v-116.558797h27.25583v49.279818h47.455501v-49.279818h27.25583v116.558797h-27.25583v-48.71916h-47.455501z m410.911592-46.239773h-43.302854v94.958933h-27.094604v-116.558797h70.397458v21.599864zM363.046491 283.45482000000004a15.866916 15.866916 0 0 0 0-22.465543l-69.085867-68.939166 69.132346-68.994361c0.020335-0.020335 0.043574-0.04067 0.063909-0.065361 6.17886-6.200647 6.151262-16.230037-0.063909-22.400182l-0.062457-0.059552c-6.216624-6.170145-16.264896-6.141095-22.448113 0.059552l-79.536477 79.379609c-0.319546 0.270162-0.721884 0.366026-1.026905 0.655069a15.731835 15.731835 0 0 0-4.615988 11.505112 15.861106 15.861106 0 0 0 4.66392 11.259643c0.21061 0.21061 0.514179 0.290496 0.739314 0.501106l79.728204 79.564074c6.216624 6.205004 16.293946 6.205004 22.512023 0z m182.160159 45.00952c4.504148 7.645867 14.70493 10.160113 22.750229 5.615297 8.046752-4.544817 10.902332-14.414434 6.398185-22.048681L414.686593 55.53566000000001c-4.5056-7.645867-14.703478-10.145589-22.751682-5.615297-8.046752 4.544817-10.916857 14.414434-6.39528 22.050133l159.667019 256.493844z m51.544238-205.394065l69.135251 68.99436-69.085867 68.944976c-6.216624 6.200647-6.216624 16.260539 0 22.459734 6.218077 6.205004 16.293946 6.205004 22.510571 0l79.763063-79.598934c0.220777-0.17575 0.495296-0.255637 0.701549-0.460437a15.78703 15.78703 0 0 0 4.669731-11.249475 15.760885 15.760885 0 0 0-4.604369-11.519637c-0.306474-0.320999-0.721884-0.41541-1.057407-0.705906l-79.507427-79.344749-0.03486-0.030502c-6.218077-6.190479-16.288136-6.174502-22.490235 0.030502-0.004357 0.004357-0.004357 0.010167-0.010167 0.010167-6.218077 6.209362-6.207909 16.269254 0.010167 22.469901z"  horiz-adv-x="1024" />

    
    <glyph glyph-name="15" unicode="&#58889;" d="M511.999 823.935c59.406 0 117.026-11.626 171.234-34.558 52.377-22.153 99.434-53.882 139.843-94.297 40.421-40.412 72.144-87.468 94.3-139.849 22.933-54.211 34.558-111.823 34.558-171.231 0-59.406-11.626-117.026-34.558-171.234-22.156-52.377-53.879-99.434-94.3-139.843-40.41-40.421-87.466-72.144-139.843-94.3-54.209-22.933-111.828-34.558-171.234-34.558-59.408 0-117.02 11.626-171.231 34.558-52.384 22.156-99.436 53.879-139.849 94.3-40.415 40.41-72.144 87.466-94.297 139.843-22.933 54.209-34.558 111.828-34.558 171.234 0 59.408 11.626 117.02 34.558 171.231 22.153 52.384 53.882 99.436 94.297 139.849 40.412 40.415 87.468 72.144 139.849 94.297 54.211 22.933 111.822 34.558 171.231 34.558M511.999 881.103c-274.541 0-497.102-222.56-497.102-497.102 0-274.545 222.56-497.102 497.102-497.102 274.545 0 497.102 222.556 497.102 497.102 0 274.541-222.556 497.102-497.102 497.102v0zM608.895 590.962c34.014-34.043 67.782-67.843 101.868-101.961-91.911-91.189-184.18-182.743-276.124-273.969-33.995 34.001-67.758 67.762-101.911 101.92 91.826 91.108 184.101 182.665 276.169 274.01zM731.422 510.723c-34.545 34.566-68.325 68.368-102.327 102.387 0.569 0.613 1.431 1.607 2.369 2.544 15.47 15.476 30.932 30.961 46.442 46.411 19.263 19.204 45.127 19.187 64.415-0.033 12.441-12.395 24.854-24.818 37.258-37.252 19.419-19.473 19.457-45.328 0.091-64.717-15.269-15.295-30.583-30.55-45.834-45.869-1.042-1.045-1.714-2.446-2.414-3.474zM250.596 132.03300000000002c20.405 54.507 40.813 109.02 61.02 163.002 33.361-33.334 66.804-66.753 100.336-100.255-53.242-21.068-106.925-42.311-160.61-63.562-0.25 0.272-0.498 0.544-0.747 0.816z"  horiz-adv-x="1024" />

    
    <glyph glyph-name="46" unicode="&#58934;" d="M188.96331 207.04220699999996l5.579035-34.868966c-0.158897-0.03531-36.440276-5.649655-54.572138-28.318896C122.827034 122.42096600000002 123.762759 83.86206900000002 123.762759 83.86206900000002l-35.29269-0.847448c-0.211862 8.580414-0.052966 52.930207 23.940414 82.908689 25.953103 32.450207 71.450483 40.324414 76.376276 41.101242l0.176551 0.017655M789.221517 207.04220699999996l5.614345-34.868966c-0.194207-0.03531-36.475586-5.649655-54.589793-28.301241C723.085241 122.42096600000002 724.038621 83.86206900000002 724.038621 83.86206900000002l-35.310345-0.847448c-0.194207 8.580414-0.03531 52.930207 23.940414 82.908689 25.953103 32.450207 71.450483 40.324414 76.376276 41.101242l0.176551 0.017655M812.137931-92.68965500000002c97.350621 0 176.551724 79.201103 176.551724 176.551724s-79.201103 176.551724-176.551724 176.551724-176.551724-79.201103-176.551724-176.551724 79.201103-176.551724 176.551724-176.551724m0-35.310345c-117.018483 0-211.862069 94.843586-211.862069 211.862069s94.843586 211.862069 211.862069 211.862069c116.983172 0 211.862069-94.843586 211.862069-211.862069s-94.861241-211.862069-211.862069-211.862069zM653.382621 807.741793l0.211862-35.310345c-0.176552-0.017655-138.699034-0.829793-252.433655-118.519172C261.579034 509.510621 212.038621 278.08662100000004 212.038621 278.08662100000004l-34.515862 7.379862c2.08331 9.851586 53.318621 243.058759 198.267586 393.021793 122.650483 126.870069 271.165793 129.200552 277.433379 129.253517h0.158897M493.744552 865.880276L512.176552 896l317.810758-194.206897-18.432-30.137379L493.744552 865.880276M790.457379 277.115586l-31.020138-16.843034c-0.794483 1.465379-67.389793 124.274759-84.338758 229.376-24.946759 154.606345 12.25269 261.278897 13.594483 265.021793l33.244689-11.828966c-0.353103-0.98869-35.433931-102.170483-11.970207-247.560827 15.819034-98.304 79.748414-216.787862 80.401655-217.970759l0.088276-0.194207M211.862069-92.68965500000002c97.350621 0 176.551724 79.201103 176.551724 176.551724s-79.201103 176.551724-176.551724 176.551724-176.551724-79.201103-176.551724-176.551724 79.201103-176.551724 176.551724-176.551724m0-35.310345c-117.018483 0-211.862069 94.843586-211.862069 211.862069s94.843586 211.862069 211.862069 211.862069 211.862069-94.843586 211.862069-211.862069-94.843586-211.862069-211.862069-211.862069z"  horiz-adv-x="1024" />

    
    <glyph glyph-name="54" unicode="&#58959;" d="M883.350588 474.352941v-482.605176s-0.210824-43.459765-26.172235-77.854118c-0.843294-1.204706-1.596235-2.349176-2.529882-3.463529a97.912471 97.912471 0 0 0-10.721883-11.083294 63.849412 63.849412 0 0 0-3.252706-2.56c-17.167059-14.155294-41.080471-24.184471-75.023058-24.184471H118.392471s-117.669647 0-117.669647 119.145412V646.927059c0 119.115294 101.436235 119.115294 117.669647 119.115294H602.352941V701.44H121.223529c-15.962353 0-57.825882 0-57.856-58.578824V115.35058800000002c34.484706 31.834353 77.854118 72.312471 100.472471 95.201883 24.274824 24.606118 48.459294 29.696 64.391529 28.912941 30.509176-0.752941 51.651765-19.727059 57.645177-25.810824 9.035294-8.131765 81.317647-73.396706 118.573176-111.164235 4.969412-5.029647 15.239529-15.420235 27.617883-3.553882l60.988235 53.820235c1.355294 1.626353 20.540235 20.48 50.176 20.871529 13.763765 0.722824 36.412235-4.276706 58.307765-26.473411 29.455059-29.816471 146.040471-153.539765 188.506353-198.656 25.509647 16.233412 25.660235 50.025412 25.660235 50.025411V474.352941h67.614118zM63.367529 29.12376500000005v-28.461177s-1.957647-60.476235 61.801412-60.416l585.788235-0.271059c-52.464941 55.627294-131.222588 138.962824-153.991529 162.032942-8.794353 8.854588-14.637176 10.059294-20.931765 4.065882l-60.897882-53.669647c-0.150588-0.391529-21.684706-22.347294-54.121412-22.768941-14.667294 0.993882-38.189176 4.427294-61.138823 27.708235-37.647059 38.159059-115.952941 108.694588-116.736 109.387294l-2.379294 2.319059c-0.060235 0-6.836706 6.565647-14.245647 6.595765-7.047529 0.722824-13.432471-5.571765-18.070589-10.24-35.900235-36.352-118.633412-112.128-145.076706-136.282353zM589.101176 281.6c82.371765 0 149.383529 67.915294 149.38353 151.401412 0 83.486118-67.011765 151.431529-149.38353 151.431529-82.401882 0-149.413647-67.945412-149.413647-151.431529s67.041882-151.401412 149.38353-151.401412z m0 238.983529c47.585882 0 86.317176-39.273412 86.317177-87.582117 0-48.308706-38.731294-87.552-86.317177-87.552s-86.347294 39.243294-86.347294 87.552 38.731294 87.582118 86.347294 87.582117zM806.701176 751.887059h-113.935058c-16.444235 0-30.177882-13.522824-30.177883-30.177883v-12.830117a30.117647 30.117647 0 0 1 30.177883-30.177883h113.935058v-113.935058c0-16.444235 13.522824-30.177882 30.177883-30.177883h12.830117a30.117647 30.117647 0 0 1 30.177883 30.177883V678.701176h113.935059c16.444235 0 30.177882 13.522824 30.177882 30.177883v12.830117a30.117647 30.117647 0 0 1-30.177882 30.177883h-113.935059V865.822118C879.887059 882.266353 866.364235 896 849.709176 896h-12.830117a30.117647 30.117647 0 0 1-30.177883-30.177882v-113.935059z"  horiz-adv-x="1024" />

    
    <glyph glyph-name="49" unicode="&#58908;" d="M78.154 862.413l80.564-870.753 351.392-95.882 357.451 97.805 78.285 870.02-867.692-1.19z m758.218-842.759l-326.261-89.268-320.284 87.393-75.074 811.309 794.588 1.093-72.969-810.527zM477.643 654.108h-95.791v-306.84c0-75.923-21.592-97.124-59.168-97.124-17.607 0-33.464 3.64-45.8 8.755l-9.983-89.825c17.601-7.309 44.611-11.688 65.746-11.688 86.269 0 144.997 48.904 144.997 189.129V654.108m171.538-0.48c-90.453 0-147.708-61.972-147.708-143.881 0-70.542 44.094-114.709 108.202-143.195 46.369-19.942 64.699-37.76 64.699-66.957 0-32.053-21.188-52.718-61.26-52.718-37.215 0-70.998 14.99-93.898 29.943v0.028L501.475 187.79999999999995c21.771-14.981 62.418-29.938 106.481-29.938 105.92 0.005 155.146 68.388 155.146 148.875 0 68.384-31.484 112.54-99.603 143.898-50.385 24.212-71.561 37.74-71.561 68.371 0 24.226 18.325 46.295 56.113 46.295 37.193 0 62.771-15.082 77.677-24.352l22.335 90.142c-23.36 12.369-54.819 22.538-98.881 22.537m0 0z"  horiz-adv-x="1024" />

    
    <glyph glyph-name="34" unicode="&#58890;" d="M179.58684444444452 555.6072296296296c1.6990814814814814 2.7913481481481477 3.519525925925926 5.582696296296295 5.33997037037037 8.252681481481481 1.8204444444444445 2.7913481481481477 3.640888888888889 5.461333333333333 5.461333333333333 8.131318518518519s3.7622518518518513 5.33997037037037 5.582696296296295 8.009955555555555c1.9418074074074074 2.669985185185185 3.883614814814815 5.218607407407406 5.825422222222222 7.76722962962963 7.888592592592592 10.437214814814812 16.262637037037038 20.388977777777775 25.122133333333334 29.85528888888889H163.6882962962963l15.898548148148146-62.01647407407407zM227.03976296296304 617.8664296296296c-8.859496296296296-9.46631111111111-17.23354074074074-19.53943703703704-25.122133333333334-29.85528888888889 7.888592592592592 10.437214814814812 16.262637037037038 20.388977777777775 25.122133333333334 29.85528888888889zM201.9176296296297 588.0111407407408c-1.9418074074074074-2.548622222222222-3.883614814814815-5.218607407407406-5.825422222222222-7.76722962962963 1.9418074074074074 2.548622222222222 3.883614814814815 5.218607407407406 5.825422222222222 7.76722962962963zM196.0922074074074 580.1225481481482c-1.9418074074074074-2.669985185185185-3.7622518518518513-5.33997037037037-5.582696296296295-8.009955555555555 1.6990814814814814 2.669985185185185 3.640888888888889 5.33997037037037 5.582696296296295 8.009955555555555zM190.38814814814816 572.1125925925926c-1.8204444444444445-2.669985185185185-3.640888888888889-5.33997037037037-5.461333333333333-8.131318518518519 1.8204444444444445 2.669985185185185 3.640888888888889 5.461333333333333 5.461333333333333 8.131318518518519zM179.58684444444452 555.6072296296296zM840.8936296296297 548.8109037037037l18.083081481481482 69.17688888888888h-69.66234074074075c19.418074074074074-21.117155555555552 36.772977777777776-44.297481481481476 51.57925925925925-69.17688888888888zM823.1746370370372 576.1175703703703c-4.126340740740741 5.946785185185185-8.495407407407408 11.650844444444443-12.985837037037037 17.3549037037037 4.490429629629629-5.704059259259259 8.859496296296296-11.52948148148148 12.985837037037037-17.3549037037037zM810.310162962963 593.3511111111111c-4.490429629629629 5.582696296296295-9.102222222222222 11.16539259259259-13.835377777777778 16.505362962962963 4.733155555555555-5.33997037037037 9.344948148148148-10.801303703703704 13.835377777777778-16.505362962962963zM196.0922074074074 580.1225481481482zM201.9176296296297 588.0111407407408zM190.38814814814816 572.1125925925926zM184.92681481481486 563.9812740740741zM787.1298370370371 617.8664296296296l-84.83271111111111-364.08888888888885c-11.044029629629629-46.36065185185185-20.02488888888889-87.50269629629629-26.942577777777778-123.30477037037036-8.61677037037037 62.62328888888889-22.69487407407407 129.49428148148147-42.11294814814815 200.61297777777781l-77.42957037037036 286.78068148148145H469.522962962963l-102.9157925925926-382.65742222222224c-2.4272592592592592-9.223585185185184-10.558577777777776-44.176118518518514-24.272592592592588-104.73623703703703-6.432237037037037 38.35069629629629-14.078103703703704 77.06548148148147-22.816237037037038 115.90162962962961l-82.28408888888887 371.4920296296296h-10.194488888888888c-8.859496296296296-9.46631111111111-17.23354074074074-19.53943703703704-25.122133333333334-29.85528888888889-1.9418074074074074-2.548622222222222-3.883614814814815-5.218607407407406-5.825422222222222-7.76722962962963-1.9418074074074074-2.669985185185185-3.7622518518518513-5.33997037037037-5.582696296296295-8.009955555555555-1.8204444444444445-2.669985185185185-3.640888888888889-5.33997037037037-5.461333333333333-8.131318518518519s-3.519525925925926-5.461333333333333-5.33997037037037-8.252681481481481L307.50340740740745 51.46548148148145h72.93914074074074L495.00918518518523 483.0321777777778c4.8545185185185185 18.204444444444444 10.194488888888888 40.413866666666664 15.898548148148146 66.5069037037037 1.6990814814814814-8.252681481481481 7.403140740740739-30.462103703703708 16.990814814814815-66.5069037037037l113.83845925925925-431.6880592592592h69.05552592592592L840.8936296296297 548.8109037037037c-14.806281481481477 25.000770370370375-32.16118518518518 48.1810962962963-51.57925925925925 69.17688888888888h-2.1845333333333334zM511.5145481481482 863.3837037037038C246.33647407407406 863.3837037037038 31.402666666666672 648.4498962962962 31.402666666666672 383.2718222222222c0-265.17807407407406 214.9338074074074-480.1118814814816 480.1118814814816-480.1118814814816 265.17807407407406 0 480.1118814814816 214.9338074074074 480.1118814814816 480.1118814814816 0 265.17807407407406-214.9338074074074 480.1118814814816-480.1118814814816 480.1118814814816z m0-921.5089777777777c-243.81819259259257 0-441.39709629629624 197.5789037037037-441.39709629629624 441.39709629629624s197.5789037037037 441.39709629629624 441.39709629629624 441.39709629629624 441.39709629629624-197.5789037037037 441.39709629629624-441.39709629629624-197.5789037037037-441.39709629629624-441.39709629629624-441.39709629629624z"  horiz-adv-x="1024" />

    
    <glyph glyph-name="32" unicode="&#59381;" d="M1190.494 460.362L1070.944 673.8v1.251c-1.878 3.756-4.382 6.885-8.137 8.763L634.054 844.674l-1.252 0.627-1.252 0.626c-3.13 1.877-6.259 2.503-9.389 2.503s-6.885-0.626-9.388-2.503l-1.252-0.626-1.252-0.626-427.501-161.487c-4.382-2.503-8.763-6.259-11.267-10.64l-119.55-214.69c-5.007-11.266 0-24.41 10.64-30.044l97.018-48.195 10.014-5.008v-249.115c0-8.763 4.382-16.274 12.519-20.655L610.269-77.29999999999995c3.755-1.877 7.511-2.503 11.266-2.503 3.756 0 7.511 0.626 11.267 2.503l425.623 182.768h1.252c8.763 3.13 14.396 11.266 14.396 20.655V376.49l9.39 5.007 93.887 48.196 3.755 1.878h3.756c8.762 6.885 11.266 18.777 5.633 28.792z m-58.836 15.022l8.763-16.274-382.436-191.53-5.633-2.504-3.13 5.007-92.01 167.746-3.129 5.633 5.633 3.13 379.932 191.53 2.504-4.381 89.506-158.357z m-145.839 194.66l16.9-5.633-348.01-176.509-8.763-4.381V787.09l6.26-1.878 333.613-115.169zM593.37 785.213l15.022 5.007v-302.944h-7.51l-1.879 1.252-352.39 177.76 11.892 4.382 334.865 114.543zM200.92 632.489l5.634 10.64 386.19-195.911 5.634-3.13-3.13-5.633-92.636-167.12-3.13-5.007-5.633 2.503-387.442 194.035 6.885 12.518 87.628 157.105z m26.289-499.482l-11.267 4.382V363.97l0.626-0.626 282.289-140.832c3.13-1.251 6.259-2.503 9.388-2.503 6.886 0 13.145 3.755 16.9 9.389L596.5 355.20799999999997l11.892 20.655v-399.96l-15.648 6.258-365.535 150.846z m801.8 16.274v-11.892l-10.641-4.382L652.83-17.839000000000055l-6.885-3.13V375.86400000000003l11.893-20.655 71.98-126.435c3.13-5.634 9.389-8.763 15.648-8.763 3.13 0 6.26 0.626 9.389 2.503l274.777 137.702v-210.934z"  horiz-adv-x="1251" />

    
    <glyph glyph-name="50" unicode="&#58911;" d="M853.333333 384c-6.4 0-14.933333 2.133333-21.333333 2.133333V512c0 177.066667-142.933333 320-320 320S192 689.066667 192 512v-125.866667c-6.4 0-14.933333-2.133333-21.333333-2.133333-46.933333 0-85.333333 38.4-85.333334 85.333333 0 40.533333 27.733333 74.666667 66.133334 83.2C172.8 733.866667 326.4 874.666667 512 874.666667s339.2-140.8 360.533333-322.133334c38.4-8.533333 66.133333-42.666667 66.133334-83.2 0-46.933333-38.4-85.333333-85.333334-85.333333zM149.333333 505.6c-12.8-6.4-21.333333-21.333333-21.333333-36.266667s8.533333-29.866667 21.333333-36.266666v72.533333z m725.333334 0v-72.533333c12.8 6.4 21.333333 21.333333 21.333333 36.266666s-8.533333 29.866667-21.333333 36.266667z m-552.533334-196.266667l-19.2 19.2c-6.4 6.4-12.8 14.933333-17.066666 21.333334-4.266667 8.533333-10.666667 14.933333-14.933334 23.466666-4.266667 6.4-8.533333 14.933333-10.666666 23.466667 0 0 0 2.133333-2.133334 2.133333-6.4 14.933333-12.8 32-17.066666 49.066667 0 2.133333 0 4.266667-2.133334 4.266667-2.133333 6.4-2.133333 14.933333-4.266666 21.333333v6.4c-4.266667 44.8 0 93.866667 27.733333 147.2C309.333333 723.2 405.333333 789.333333 512 789.333333c153.6 0 277.333333-123.733333 277.333333-277.333333 0-12.8 0-23.466667-2.133333-36.266667 0-6.4-2.133333-14.933333-4.266667-21.333333 0-2.133333-2.133333-4.266667-2.133333-6.4-4.266667-17.066667-8.533333-32-17.066667-46.933333 0-2.133333-2.133333-2.133333-2.133333-4.266667-4.266667-6.4-6.4-14.933333-10.666667-21.333333v-2.133334c-4.266667-8.533333-8.533333-14.933333-14.933333-23.466666-6.4-6.4-10.666667-14.933333-17.066667-21.333334l-19.2-19.2c81.066667-46.933333 147.2-125.866667 177.066667-219.733333 17.066667-49.066667 23.466667-89.6 19.2-136.533333-2.133333-32-32-57.6-64-57.6L192-106.66666699999996c-34.133333 0-61.866667 25.6-64 57.6v25.6c0 145.066667 78.933333 268.8 194.133333 332.8zM512 746.666667c-130.133333 0-234.666667-104.533333-234.666667-234.666667s104.533333-234.666667 234.666667-234.666667 234.666667 104.533333 234.666667 234.666667S642.133333 746.666667 512 746.666667zM170.666667-44.799999999999955c0-10.666667 10.666667-19.2 21.333333-19.2h635.733333c10.666667 0 23.466667 10.666667 23.466667 21.333333 2.133333 40.533333-4.266667 78.933333-17.066667 117.333334-29.866667 89.6-93.866667 162.133333-172.8 204.8-10.666667-6.4-21.333333-12.8-32-17.066667-12.8-6.4-23.466667-10.666667-38.4-14.933333-10.666667-4.266667-21.333333-6.4-34.133333-8.533334-2.133333 0-6.4 0-8.533333-2.133333-10.666667-2.133333-23.466667-2.133333-36.266667-2.133333-14.933333 0-29.866667 2.133333-42.666667 4.266666h-4.266666c-12.8 2.133333-23.466667 4.266667-36.266667 8.533334-25.6 8.533333-51.2 19.2-72.533333 34.133333C245.333333 226.133333 170.666667 110.93333299999995 170.666667-21.33333300000004v-23.466667z"  horiz-adv-x="1024" />

    
    <glyph glyph-name="53" unicode="&#59110;" d="M913.792 828.352h-634.112a44.416 44.416 0 0 1-44.608-44.608v-634.112c0-24.768 19.84-44.608 44.608-44.608h634.112c24.768 0 44.608 19.84 44.608 44.608v634.112c0.96 24.832-19.84 44.608-44.608 44.608z m-638.336-683.648V788.224h644.608v-643.52H275.456z m499.52-76.288h-9.856c13.888 0 25.792-10.88 23.808-24.768v-59.456c0-24.768-19.84-44.608-44.608-44.608h-634.112a44.416 44.416 0 0 0-44.608 44.608v634.112c0 24.768 19.84 44.608 44.608 44.608h67.392c13.888 0 20.16-4.8 20.16-18.688 0-13.888-6.272-23.488-20.16-23.488h-74.112v-640h649.216v62.912c0 13.888 8.384 24.768 22.272 24.768zM569.408 512h-128v-44.8h128v-128h44.8v128h128v44.8h-128v128h-44.8v-128z"  horiz-adv-x="1024" />

    
    <glyph glyph-name="20" unicode="&#58989;" d="M955.321073 767.730004c-6.719895 6.079905-15.679755 8.95986-24.735613 8.063874-2.399963-0.287996-249.340104-23.967626-390.553898 111.294261a32.0315 32.0315 0 0 1-44.447306-0.159997c-139.037828-135.03789-387.86594-111.35826-390.3939-111.102264a31.967501 31.967501 0 0 1-35.263449-31.807503v-239.99625c0-519.223887 436.089186-630.038156 440.505117-631.094139a31.167513 31.167513 0 0 1 14.975767-0.032c4.415931 1.055984 440.505117 111.902252 440.505117 631.094139v239.99625a31.935501 31.935501 0 0 1-10.591835 23.743629z m-53.407165-263.739879c0-437.241168-328.218872-550.743395-383.994-566.839143-55.935126 16.159748-383.994 129.725973-383.994001 566.839143V710.130904c75.774816-2.207966 256.187997 5.343917 384.121999 111.070265 129.117983-105.59835 308.539179-113.054234 383.866002-111.070265v-206.140779zM673.91747 518.005906c0 91.51857-74.462837 165.981407-166.013406 165.981407s-166.013406-74.462837-166.013406-165.981407c0-83.998688 62.943017-152.893611 143.99775-163.773441V159.9955a31.9995 31.9995 0 0 1 63.999 0v63.999h63.999a31.9995 31.9995 0 0 1 0 63.999h-63.999v70.046906c71.166888 18.751707 124.030062 83.038703 124.030062 159.9655z m-267.995813 0c0 56.255121 45.759285 102.014406 102.014406 102.014406s102.014406-45.759285 102.014407-102.014406S564.159185 415.9915 507.904064 415.9915s-101.982407 45.759285-101.982407 102.014406z"  horiz-adv-x="1024" />

    
    <glyph glyph-name="51" unicode="&#58888;" d="M989.867 361.244L512 839.111 34.133 361.244l45.511-39.822 91.023 91.022V-71.11000000000001H455.11V156.44399999999996H568.89V-71.11000000000001h284.444V412.444l91.023-91.022 45.51 39.822zM796.444-14.22199999999998H625.778V213.33299999999997H398.222v-227.555H227.556V469.333L512 759.467l284.444-290.134v-483.555z"  horiz-adv-x="1024" />

    
    <glyph glyph-name="37" unicode="&#58907;" d="M626.176 616.448c74.24 0 134.656-55.808 134.656-124.928 0-21.504-6.144-42.496-17.408-61.44-16.896-27.648-44.032-48.128-76.8-57.856-8.704-2.56-15.36-3.584-21.504-3.584-14.336 0-25.6 11.264-25.6 25.6s11.264 25.6 25.6 25.6c1.024 0 3.072 0 5.632 1.024 22.016 6.144 39.424 18.944 49.152 35.84 6.656 10.752 9.728 22.528 9.728 34.816 0 40.448-37.376 73.728-82.944 73.728-15.872 0-31.232-4.096-45.056-11.776-24.064-13.824-38.4-36.864-38.4-61.952v-214.528c0-43.52-24.064-83.456-64-105.984-21.504-12.288-45.568-18.432-70.144-18.432-74.24 0-134.656 55.808-134.656 124.928 0 21.504 6.144 42.496 17.408 61.44 16.896 27.648 44.032 48.128 76.8 57.856 9.216 2.56 15.36 3.584 21.504 3.584 14.336 0 25.6-11.264 25.6-25.6s-11.264-25.6-25.6-25.6c-1.024 0-3.072 0-5.632-1.024-22.016-6.656-39.424-19.456-49.152-35.84-6.656-10.752-9.728-22.528-9.728-34.816 0-40.448 37.376-73.728 83.456-73.728 15.872 0 31.232 4.096 45.056 11.776 24.064 13.824 38.4 36.864 38.4 61.952V491.52c0 43.52 24.064 83.456 64 105.984 20.992 12.8 45.056 18.944 69.632 18.944z m-520.704-230.4c0-226.304 183.296-409.6 409.6-409.6s409.6 183.296 409.6 409.6-183.296 409.6-409.6 409.6-409.6-183.296-409.6-409.6z m-51.2 0c0 254.464 206.336 460.8 460.8 460.8s460.8-206.336 460.8-460.8-206.336-460.8-460.8-460.8-460.8 206.336-460.8 460.8z m0 0"  horiz-adv-x="1024" />

    
    <glyph glyph-name="45" unicode="&#58909;" d="M512 33.01376000000005c189.24032 0 343.21408 153.9584 343.21408 343.21664 0 189.248-153.97376 343.22432-343.21408 343.22432S168.78336 565.4784 168.78336 376.23040000000003c0-189.2608 153.97632-343.21664 343.21664-343.21664M512-5.1200000000000045c-210.63424 0-381.34784 170.73408-381.34784 381.3504 0 210.624 170.71616 381.34784 381.34784 381.34784 210.63424 0 381.3504-170.72384 381.3504-381.34784C893.3504 165.61407999999994 722.63424-5.1200000000000045 512-5.1200000000000045zM486.57664 367.75424a16.94464 16.94464 0 0 0-16.9472 16.93952v254.22848a16.92928 16.92928 0 0 0 16.9472 16.95744 16.94208 16.94208 0 0 0 16.94976-16.95744v-254.22848a16.95744 16.95744 0 0 0-16.94976-16.93952z m0 0a16.94464 16.94464 0 0 0-16.9472 16.93952v254.22848a16.92928 16.92928 0 0 0 16.9472 16.95744 16.94208 16.94208 0 0 0 16.94976-16.95744v-254.22848a16.95744 16.95744 0 0 0-16.94976-16.93952z m166.80448-190.47424a16.95232 16.95232 0 0 0-23.9232 1.78432L514.5856 354.89279999999997a16.93696 16.93696 0 0 0 1.78432 23.9104 16.95232 16.95232 0 0 0 23.90272-1.77408l114.8928-175.86432c6.10048-7.08864 5.34016-17.8048-1.78432-23.8848zM503.5264 452.49536c28.11904 0 50.84416-22.75328 50.84416-50.84416s-22.72512-50.84416-50.84416-50.84416c-28.0832 0-50.84416 22.75328-50.84416 50.84416s22.76096 50.84416 50.84416 50.84416zM779.76832 730.24512c65.14944-0.01792 117.96992-52.75392 118.08512-117.88544a21.40672 21.40672 0 0 1 21.43232-21.43232 21.42976 21.42976 0 0 1 21.42976 21.43232c0 88.67328-72.10496 160.75776-160.9472 160.75776h-21.07136c-11.85536 0-21.45024-9.60512-21.45024-21.43232a21.44256 21.44256 0 0 1 21.45024-21.44h21.07136zM244.21376 773.12c-88.8064 0-160.92928-72.08704-160.92928-160.75776a21.43232 21.43232 0 0 1 21.43232-21.43232 21.40928 21.40928 0 0 1 21.43232 21.43232c0 65.00864 52.93568 117.88544 118.0672 117.88544h21.08928a21.44256 21.44256 0 0 1 21.45024 21.44c0 11.8272-9.59488 21.43232-21.45024 21.43232h-21.09184z m0 0"  horiz-adv-x="1024" />

    
    <glyph glyph-name="44" unicode="&#58938;" d="M433.3 2.2000000000000455c-8.6 0-16.7 3.4-22.8 9.5-6.1 6.1-9.4 14.2-9.3 22.9v5.8c0.5 60.8 1.8 222.4 12 280.5v0.2c5.5 31.5 10.8 61.4 19.7 91.5-3.5 0.4-7.3 1-11.4 1.5-10.1 1.4-21.6 3-33.8 3.9-78.7 5.7-129.1 35.7-164.1 61.1-41.5 30.1-66 69.8-76.9 124.9-3.3 16.8-2.6 32.2-1.5 46.5 3.6 47.9 33.4 86 81.7 104.6 13.9 5.3 31.6 8 52.7 8 16 0 30.1-1.6 38-3.1 15.7-3 31.1-7.8 45.9-14.3l0.5-0.2c14.5-7 30.1-16.4 46.4-28.2 16.2-11.7 32.1-25.2 47.1-40.3 15-15 29-31.2 41.7-48.1 6.7-8.9 12.9-18 18.5-27 6.3 8.1 13.4 16 21.2 23.6 15 14.7 31.8 28 49.9 39.5 18 11.5 37.2 21.2 57 28.9 20.2 7.9 40.4 12.8 59.9 14.6 7.9 0.8 15.7 1.2 23.1 1.2 19.8 0 38.1-2.9 54.2-8.7 22.1-7.9 41-19.2 56-33.6 17.5-16.8 28.6-33.9 33.7-52.3 14.9-53.6-4.3-100.8-27.3-127.1-33.2-38-76-65.8-127.3-82.6-37.7-12.4-79.1-18.6-123.2-18.6-24.5 0-44.5 2-56.9 3.7-5.6-27.9-10.4-58.2-14.5-90.4-4.8-38.2-7.2-77.8-7.2-117.9 0-18.8 0.4-37.8 1.2-56.6 0.8-19 1.8-36.5 2.8-52v-0.1c0.7-12.1 1.6-24.2 2.6-35.9 0.8-8.8-2.2-17.7-8.2-24.2-6-6.6-14.5-10.4-23.4-10.5l-58-0.7z m-153.7 727c-16.7 0-30.7-2-40.6-5.8-48.7-18.7-58.5-55.2-60-75.4-0.9-12.5-1.6-24.8 0.9-37.3 9.3-46.9 28.9-78.9 63.5-104.1 31.4-22.8 76.5-49.6 146.6-54.7 13.4-1 25.9-2.7 36-4.1 7.5-1 14-1.9 18.7-2.3 8.1-0.5 15.4-4.7 19.9-11.4 4.6-6.7 5.8-15 3.3-22.8-9.9-31-15.5-62.6-21.4-96.2v-0.2c-9.7-55.3-11.1-220.6-11.5-274.9v-3.9l53.7 0.6c-0.9 11.3-1.8 22.9-2.5 34.5-1.1 15.8-2.1 33.6-2.9 52.8-0.8 19.3-1.2 38.8-1.2 58.1 0 41.5 2.5 82.6 7.5 122.1 4.5 35.6 9.9 69.1 16.2 99.5 2.6 12.5 13.7 21.5 26.4 21.5 1.4 0 2.8-0.1 4.2-0.3 10.1-1.6 31.1-4.2 58.4-4.2 66.9 0 160.2 15.5 224.9 89.6 5.2 6 14.8 19 20.3 38.8 5.2 18.7 5.1 37.8-0.2 56.9-3.5 12.4-11.5 24.5-24.5 37-11.6 11.1-26.3 19.9-43.9 26.2-12.5 4.5-26.9 6.7-42.8 6.7-6.3 0-13-0.4-19.8-1.1h-0.2c-16.3-1.5-33.4-5.7-50.6-12.4-17.7-6.9-35-15.7-51.2-26-16.1-10.2-31-22-44.3-35.1-9.3-9.1-17.4-18.6-24.1-28.3-4.9-7.1-12.9-11.3-21.5-11.3-9.4 0-18.1 5.1-22.8 13.3-6.3 11.1-13.8 22.4-22.2 33.6-11.7 15.7-24.7 30.6-38.6 44.5-13.8 13.8-28.2 26.1-43 36.7-14.6 10.5-28.4 18.9-41 25-12.3 5.4-25.2 9.4-38.2 11.8-5.8 1.2-17.8 2.6-31.5 2.6zM504.7 471.2c-12.5 0-24.3 5.8-31.1 16.5-53.3 83.6-108.6 105.7-109.2 106-5.1 2-7.7 7.8-5.7 12.9 2 5.1 7.7 7.7 12.9 5.8 2.5-0.9 61.8-24.2 118.9-113.9 5.6-8.8 18.1-8.8 26.4-3.7 4.1 2.5 8.4 5.1 12.9 7.9 47 28.9 111.4 68.5 193.6 69.4 5.6 0.1 10-4.4 10.1-9.9 0.1-5.5-4.4-10-9.9-10.1-76.7-0.8-138.4-38.7-183.4-66.4-4.5-2.8-8.8-5.4-13-7.9-7.2-4.5-15-6.6-22.5-6.6z"  horiz-adv-x="1024" />

    
    <glyph glyph-name="56" unicode="&#59191;" d="M886.4 630.4l-128 128c-35.2 35.2-96 35.2-131.2 0L153.6 288c-3.2-3.2-6.4-9.6-6.4-12.8l-38.4-227.2c-3.2-19.2 3.2-35.2 16-48 9.6-9.6 25.6-16 38.4-16h9.6l227.2 38.4c6.4 0 9.6 3.2 12.8 6.4l470.4 470.4c41.6 35.2 41.6 96 3.2 131.2zM387.2 67.20000000000005l-86.4-16-118.4 118.4 16 86.4L556.8 620.8l192-192-361.6-361.6z m467.2 467.2l-70.4-70.4-192 192 70.4 70.4c16 16 44.8 16 64 0l128-128c16-19.2 16-48 0-64zM617.6 489.6c-9.6 9.6-25.6 9.6-35.2 0l-249.6-249.6c-9.6-9.6-9.6-25.6 0-35.2 3.2-3.2 9.6-6.4 16-6.4s12.8 3.2 16 6.4l249.6 249.6c12.8 12.8 12.8 25.6 3.2 35.2z"  horiz-adv-x="1024" />

    
    </font>
</defs>
</svg>
